<svg width="296" height="72" viewBox="0 0 296 72" fill="none" xmlns="http://www.w3.org/2000/svg">
<path d="M67.4114 43.8357C69.3371 43.8357 70.8981 42.2727 70.8981 40.3446C70.8981 38.4165 69.3371 36.8535 67.4114 36.8535C65.4858 36.8535 63.9248 38.4165 63.9248 40.3446C63.9248 42.2727 65.4858 43.8357 67.4114 43.8357Z" fill="white"/>
<path d="M51.9928 20.7945H57.1065C57.6489 22.1133 58.8886 22.9667 60.3607 22.9667C62.2978 22.9667 63.8474 21.4151 63.8474 19.4756C63.8474 17.5361 62.2978 15.9845 60.3607 15.9845C58.8886 15.9845 57.6489 16.9155 57.1065 18.1568H51.9928C51.6054 17.6137 50.9081 17.2258 50.1333 17.2258C48.8936 17.2258 47.8863 18.2344 47.8863 19.4756C47.8863 20.2514 48.2737 20.8721 48.8161 21.3375V24.9838H41.3779V21.3375C41.9203 20.9496 42.3077 20.2514 42.3077 19.4756C42.3077 18.2344 41.3004 17.2258 40.0607 17.2258C38.821 17.2258 37.8138 18.2344 37.8138 19.4756C37.8138 20.2514 38.2012 20.8721 38.7435 21.3375V24.9838H31.3054V21.3375C31.8477 20.9496 32.2351 20.2514 32.2351 19.4756C32.2351 18.6998 31.8477 18.0792 31.3054 17.6137V14.3554C32.6225 13.8123 33.4748 12.571 33.4748 11.097C33.4748 9.15755 31.9252 7.60596 29.9882 7.60596C28.0512 7.60596 26.5016 9.15755 26.5016 11.097C26.5016 12.571 27.4313 13.8123 28.671 14.3554V17.6137C28.1287 18.0016 27.7412 18.6998 27.7412 19.4756C27.7412 20.2514 28.1287 20.8721 28.671 21.3375V24.9838H24.2546V29.0179H20.9229C20.5355 28.4748 19.8382 28.087 19.0634 28.087C18.2886 28.087 17.6687 28.4748 17.2038 29.0179H9.84314V33.2072C8.60344 33.6727 7.67367 34.9915 7.67367 36.4655C7.67367 38.405 9.22329 39.9566 11.1603 39.9566C13.0973 39.9566 14.647 38.405 14.647 36.4655C14.647 34.9915 13.7172 33.7503 12.4775 33.2072V31.6556H17.3588C17.7462 32.1987 18.4435 32.5866 19.2183 32.5866C19.9931 32.5866 20.613 32.1987 21.0779 31.6556H24.487V39.1032H21.0779C20.6905 38.5602 19.9931 38.1723 19.2183 38.1723C17.9786 38.1723 16.9714 39.1808 16.9714 40.4221C16.9714 41.6634 17.9786 42.6719 19.2183 42.6719C19.9931 42.6719 20.613 42.284 21.0779 41.7409H24.4096V49.1886H21.0004C20.613 48.6455 19.9157 48.2576 19.1409 48.2576C18.366 48.2576 17.7462 48.6455 17.2813 49.1886H14.337C13.7947 47.8697 12.555 47.0164 11.0828 47.0164C9.14581 47.0164 7.59619 48.5679 7.59619 50.5074C7.59619 52.4469 9.14581 53.9985 11.0828 53.9985C12.555 53.9985 13.7947 53.0676 14.337 51.8263H17.2813C17.6687 52.3693 18.366 52.7572 19.1409 52.7572C19.9157 52.7572 20.5355 52.3693 21.0004 51.8263H24.3321V55.7053H28.7485V59.3515C28.671 59.4291 28.5935 59.5067 28.4386 59.5842H22.3951C21.8527 58.2654 20.613 57.412 19.1409 57.412C17.2038 57.412 15.6542 58.9636 15.6542 60.9031C15.6542 62.8426 17.2038 64.3942 19.1409 64.3942C20.613 64.3942 21.8527 63.4632 22.3951 62.2219H28.0512C28.4386 62.9202 29.1359 63.4632 30.0657 63.4632C31.3054 63.4632 32.3126 62.4547 32.3126 61.2134C32.3126 60.4376 31.9252 59.817 31.3829 59.3515V55.7053H38.821V59.3515C38.2787 59.7394 37.8913 60.4376 37.8913 61.2134C37.8913 62.4547 38.8985 63.4632 40.1382 63.4632C41.3779 63.4632 42.3852 62.4547 42.3852 61.2134C42.3852 60.4376 41.9977 59.817 41.4554 59.3515V55.7053H48.8936V59.3515C48.3512 59.7394 47.9638 60.4376 47.9638 61.2134C47.9638 62.4547 48.971 63.4632 50.2107 63.4632C51.4504 63.4632 52.4577 62.4547 52.4577 61.2134C52.4577 60.4376 52.0703 59.817 51.5279 59.3515V55.7053C53.6199 55.6277 55.247 53.9209 55.247 51.8263H58.5787C58.7336 52.059 58.8886 52.2142 59.121 52.3693V57.6447C57.8039 58.1878 56.9516 59.4291 56.9516 60.9031C56.9516 62.8426 58.5012 64.3942 60.4382 64.3942C62.3752 64.3942 63.9249 62.8426 63.9249 60.9031C63.9249 59.4291 62.9951 58.1878 61.7554 57.6447V52.3693C62.2978 51.9814 62.6852 51.2832 62.6852 50.5074C62.6852 49.2662 61.6779 48.2576 60.4382 48.2576C59.6634 48.2576 59.0436 48.6455 58.5787 49.1886H55.247V41.7409H58.5787C58.9661 42.284 59.6634 42.6719 60.4382 42.6719C61.6779 42.6719 62.6852 41.6634 62.6852 40.4221C62.6852 39.1808 61.6779 38.1723 60.4382 38.1723C59.6634 38.1723 59.0436 38.5602 58.5787 39.1032H55.1695V31.6556H58.5012C58.8886 32.1987 59.5859 32.5866 60.3607 32.5866C61.6004 32.5866 62.6077 31.578 62.6077 30.3368C62.6077 29.0955 61.6004 28.087 60.3607 28.087C59.5859 28.087 58.9661 28.4748 58.5012 29.0179H55.1695V24.9838H51.4504V21.3375C51.6829 21.1824 51.8378 20.9496 51.9928 20.7945ZM44.4771 35.6897V44.9993H35.1794V35.6897H44.4771Z" fill="white"/>
<path d="M113.179 47.9263C113.353 48.3245 113.309 48.7289 113.048 49.1395C112.787 49.5502 112.433 49.7555 111.986 49.7555H87.156C86.9323 49.7555 86.721 49.6995 86.5222 49.5875C86.3234 49.4755 86.1742 49.3324 86.0748 49.1582C85.8014 48.76 85.7641 48.3494 85.963 47.9263L87.1187 45.2013C87.2181 44.9524 87.3797 44.7533 87.6034 44.604C87.8271 44.4547 88.0632 44.3801 88.3117 44.3801H105.685L99.5709 29.747L94.5751 41.6923C94.4757 41.9412 94.3203 42.1341 94.1091 42.271C93.8978 42.4078 93.6555 42.4763 93.3821 42.4763H90.2504C89.7782 42.4763 89.4053 42.2772 89.1319 41.879C89.0325 41.7048 88.9704 41.5057 88.9455 41.2817C88.9207 41.0577 88.9455 40.8462 89.0201 40.6471L96.5883 22.8784C96.6877 22.6295 96.8431 22.4304 97.0543 22.2811C97.2656 22.1318 97.5079 22.0571 97.7813 22.0571H101.36C101.634 22.0571 101.876 22.1318 102.087 22.2811C102.299 22.4304 102.454 22.6295 102.553 22.8784L113.179 47.9263ZM133.162 23.0277C134.678 23.6001 136.045 24.5209 137.263 25.7901C139.873 28.428 141.177 31.7939 141.177 35.8876C141.177 39.9814 139.873 43.3597 137.263 46.0225C136.045 47.2917 134.678 48.2125 133.162 48.7849C131.596 49.432 129.993 49.7555 128.353 49.7555H117.802C117.454 49.7555 117.149 49.6248 116.888 49.3635C116.627 49.1022 116.497 48.7974 116.497 48.449V45.7612C116.497 45.3879 116.627 45.0707 116.888 44.8093C117.149 44.548 117.454 44.4174 117.802 44.4174H128.241C130.453 44.4174 132.248 43.6086 133.628 41.991C135.007 40.3734 135.697 38.3452 135.697 35.9063C135.697 33.4675 135.007 31.4392 133.628 29.8216C132.248 28.204 130.453 27.3952 128.241 27.3952H117.802C117.454 27.3952 117.149 27.2646 116.888 27.0033C116.627 26.742 116.497 26.4247 116.497 26.0514V23.3637C116.497 23.0152 116.627 22.7104 116.888 22.4491C117.149 22.1878 117.454 22.0571 117.802 22.0571H128.353C129.993 22.0571 131.596 22.3806 133.162 23.0277ZM171.227 33.4799C171.6 33.4799 171.916 33.6106 172.177 33.8719C172.438 34.1332 172.569 34.4505 172.569 34.8238V37.5861C172.569 37.9345 172.438 38.2394 172.177 38.5007C171.916 38.762 171.6 38.8926 171.227 38.8926H158.961V48.449C158.961 48.7974 158.837 49.1022 158.588 49.3635C158.34 49.6248 158.029 49.7555 157.656 49.7555H154.823C154.475 49.7555 154.17 49.6248 153.909 49.3635C153.648 49.1022 153.518 48.7974 153.518 48.449V34.8238C153.518 34.4505 153.648 34.1332 153.909 33.8719C154.17 33.6106 154.475 33.4799 154.823 33.4799H171.227ZM172.904 22.0571C173.252 22.0571 173.557 22.1878 173.818 22.4491C174.079 22.7104 174.209 23.0152 174.209 23.3637V26.0887C174.209 26.462 174.079 26.7793 173.818 27.0406C173.557 27.3019 173.252 27.4325 172.904 27.4325H154.823C154.475 27.4325 154.17 27.3019 153.909 27.0406C153.648 26.7793 153.518 26.462 153.518 26.0887V23.3637C153.518 23.0152 153.648 22.7104 153.909 22.4491C154.17 22.1878 154.475 22.0571 154.823 22.0571H172.904ZM188.936 22.3558C189.234 22.6046 189.383 22.9406 189.383 23.3637V26.1634C189.383 26.4869 189.29 26.7668 189.103 27.0033C188.917 27.2397 188.662 27.3952 188.339 27.4699C186.748 27.7934 185.394 28.5524 184.275 29.747C182.759 31.3397 182.001 33.4115 182.001 35.9623C182.001 38.5131 182.759 40.5974 184.275 42.215C185.394 43.3846 186.748 44.1312 188.339 44.4547C188.662 44.5294 188.917 44.6849 189.103 44.9213C189.29 45.1578 189.383 45.4377 189.383 45.7612V48.5609C189.383 48.9591 189.234 49.2951 188.936 49.5688C188.662 49.7679 188.376 49.8675 188.078 49.8675H187.854C184.971 49.3946 182.498 48.0881 180.435 45.9479C177.85 43.2851 176.558 39.969 176.558 35.9996C176.558 32.0303 177.85 28.6893 180.435 25.9767C182.449 23.8863 184.922 22.5922 187.854 22.0945C188.252 22.0198 188.612 22.1069 188.936 22.3558ZM200.642 25.9767C203.227 28.6893 204.519 32.0303 204.519 35.9996C204.519 39.969 203.227 43.2851 200.642 45.9479C198.579 48.0881 196.106 49.3946 193.223 49.8675H192.999C192.701 49.8675 192.415 49.7679 192.142 49.5688C191.844 49.2951 191.694 48.9591 191.694 48.5609V45.7612C191.694 45.4377 191.788 45.1578 191.974 44.9213C192.16 44.6849 192.415 44.5294 192.738 44.4547C194.329 44.1312 195.684 43.3846 196.802 42.215C198.318 40.5974 199.076 38.5131 199.076 35.9623C199.076 33.4115 198.318 31.3397 196.802 29.747C195.684 28.5524 194.329 27.7934 192.738 27.4699C192.415 27.3952 192.16 27.2397 191.974 27.0033C191.788 26.7668 191.694 26.4869 191.694 26.1634V23.3637C191.694 22.9406 191.85 22.6046 192.16 22.3558C192.471 22.1069 192.825 22.0198 193.223 22.0945C196.156 22.5922 198.629 23.8863 200.642 25.9767ZM226.665 39.042L232.294 47.665C232.568 48.113 232.58 48.5609 232.332 49.0089C232.232 49.208 232.077 49.3697 231.866 49.4942C231.654 49.6186 231.437 49.6808 231.213 49.6808H227.821C227.597 49.6808 227.386 49.6248 227.187 49.5128C226.988 49.4008 226.839 49.2578 226.739 49.0835L221.073 40.0872H214.436V48.3743C214.436 48.7227 214.306 49.0276 214.045 49.2889C213.784 49.5502 213.48 49.6808 213.132 49.6808H210.298C209.95 49.6808 209.646 49.5502 209.385 49.2889C209.124 49.0276 208.993 48.7227 208.993 48.3743V36.093C208.993 35.7445 209.124 35.4397 209.385 35.1784C209.646 34.9171 209.95 34.7864 210.298 34.7864H221.781C223.968 34.7864 225.422 34.1643 226.143 32.92C226.391 32.5218 226.516 31.9494 226.516 31.2028C226.516 30.0332 226.131 29.1124 225.36 28.4404C224.565 27.7187 223.421 27.3579 221.93 27.3579H210.298C209.95 27.3579 209.646 27.2272 209.385 26.9659C209.124 26.7046 208.993 26.3998 208.993 26.0514V23.3637C208.993 23.0152 209.124 22.7104 209.385 22.4491C209.646 22.1878 209.95 22.0571 210.298 22.0571H222.266C225.174 22.0571 227.498 22.8784 229.237 24.5209C231.052 26.1634 231.959 28.3907 231.959 31.2028C231.959 33.0195 231.561 34.5687 230.766 35.8503C229.971 37.1319 228.815 38.1087 227.299 38.7807L226.665 39.042ZM251.457 27.4699C251.159 27.4201 250.911 27.2708 250.712 27.0219C250.513 26.7731 250.413 26.4993 250.413 26.2007V23.3637C250.413 22.9904 250.563 22.6544 250.861 22.3558C251.184 22.1069 251.544 22.0198 251.942 22.0945C254.875 22.5922 257.36 23.8987 259.398 26.014C260.442 27.109 261.287 28.3533 261.934 29.747C262.033 29.9212 262.076 30.1203 262.064 30.3442C262.052 30.5682 261.983 30.7797 261.859 30.9788C261.735 31.1779 261.579 31.3335 261.393 31.4454C261.207 31.5574 261.002 31.6134 260.778 31.6134H257.609C257.385 31.6134 257.174 31.5574 256.975 31.4454C256.776 31.3335 256.615 31.1779 256.49 30.9788C256.142 30.4562 255.819 30.0456 255.521 29.747C254.403 28.6022 253.048 27.8432 251.457 27.4699ZM247.655 22.3558C247.953 22.6544 248.102 22.9904 248.102 23.3637V26.2007C248.102 26.4993 248.003 26.7731 247.804 27.0219C247.605 27.2708 247.356 27.4201 247.058 27.4699C245.467 27.8432 244.113 28.6022 242.994 29.747C241.453 31.4143 240.683 33.4986 240.683 35.9996C240.683 38.5007 241.453 40.5849 242.994 42.2523C244.063 43.3971 245.418 44.1561 247.058 44.5294C247.356 44.5791 247.605 44.7285 247.804 44.9773C248.003 45.2262 248.102 45.4999 248.102 45.7986V48.6356C248.102 49.0338 247.94 49.3697 247.617 49.6435C247.369 49.8426 247.095 49.9421 246.797 49.9421H246.573C243.591 49.3946 241.105 48.0757 239.117 45.9852C236.532 43.3224 235.24 39.9939 235.24 35.9996C235.24 32.0054 236.532 28.6769 239.117 26.014C241.13 23.8987 243.616 22.5922 246.573 22.0945C246.971 22.0198 247.331 22.1069 247.655 22.3558ZM263.238 35.2344C263.263 35.4086 263.276 35.6699 263.276 36.0183C263.276 36.5658 263.238 37.2004 263.164 37.9221C262.791 41.0826 261.536 43.7703 259.398 45.9852C257.36 48.1005 254.875 49.4195 251.942 49.9421H251.718C251.42 49.9421 251.134 49.8426 250.861 49.6435C250.563 49.3449 250.413 49.0089 250.413 48.6356V45.7986C250.413 45.4999 250.513 45.2262 250.712 44.9773C250.911 44.7285 251.159 44.5791 251.457 44.5294C253.098 44.1561 254.452 43.3971 255.521 42.2523C256.391 41.3315 257.012 40.2738 257.385 39.0793H249.481C249.109 39.0793 248.798 38.9549 248.549 38.706C248.301 38.4571 248.177 38.1461 248.177 37.7728V35.1224C248.177 34.774 248.301 34.4691 248.549 34.2078C248.798 33.9465 249.109 33.8159 249.481 33.8159H261.934C262.282 33.8159 262.58 33.9341 262.828 34.1705C263.077 34.4069 263.214 34.6993 263.238 35.0477V35.2344ZM287.099 44.3801C287.472 44.3801 287.782 44.5107 288.031 44.772C288.279 45.0333 288.404 45.3506 288.404 45.7239V48.449C288.404 48.7974 288.279 49.1022 288.031 49.3635C287.782 49.6248 287.472 49.7555 287.099 49.7555H268.682C268.334 49.7555 268.029 49.6248 267.768 49.3635C267.507 49.1022 267.377 48.7974 267.377 48.449V45.7239C267.377 45.3506 267.507 45.0333 267.768 44.772C268.029 44.5107 268.334 44.3801 268.682 44.3801H287.099ZM268.682 38.594C268.334 38.594 268.029 38.4634 267.768 38.2021C267.507 37.9408 267.377 37.6359 267.377 37.2875V34.4878C267.377 34.1394 267.507 33.8345 267.768 33.5732C268.029 33.3119 268.334 33.1813 268.682 33.1813H285.421C285.794 33.1813 286.111 33.3119 286.372 33.5732C286.633 33.8345 286.763 34.1394 286.763 34.4878V37.2875C286.763 37.6359 286.633 37.9408 286.372 38.2021C286.111 38.4634 285.794 38.594 285.421 38.594H268.682ZM287.099 22.0571C287.472 22.0571 287.782 22.1878 288.031 22.4491C288.279 22.7104 288.404 23.0152 288.404 23.3637V26.0887C288.404 26.462 288.279 26.7793 288.031 27.0406C287.782 27.3019 287.472 27.4325 287.099 27.4325H268.682C268.334 27.4325 268.029 27.3019 267.768 27.0406C267.507 26.7793 267.377 26.462 267.377 26.0887V23.3637C267.377 23.0152 267.507 22.7104 267.768 22.4491C268.029 22.1878 268.334 22.0571 268.682 22.0571H287.099Z" fill="white"/>
</svg>
