<svg width="16" height="20" viewBox="0 0 16 20" fill="none" xmlns="http://www.w3.org/2000/svg">
<g clip-path="url(#clip0_48_307)">
<path d="M13.3641 10.5957C13.3917 13.5686 15.9722 14.5579 16.0007 14.5706C15.9789 14.6403 15.5884 15.9804 14.6413 17.3646C13.8225 18.5613 12.9727 19.7536 11.634 19.7783C10.3187 19.8025 9.89568 18.9983 8.39183 18.9983C6.88842 18.9983 6.41849 19.7536 5.17332 19.8025C3.88117 19.8515 2.89718 18.5085 2.07165 17.3161C0.384607 14.8772 -0.904609 10.4242 0.826488 7.41842C1.68644 5.9257 3.22334 4.98051 4.8914 4.95627C6.16024 4.93209 7.35792 5.80991 8.13359 5.80991C8.90876 5.80991 10.3642 4.75426 11.8942 4.90928C12.5347 4.93596 14.3327 5.16796 15.4872 6.85788C15.3941 6.91555 13.3418 8.1103 13.3641 10.5958M10.8921 3.29571C11.5782 2.46531 12.0399 1.30937 11.9139 0.159119C10.925 0.198858 9.72935 0.818067 9.02004 1.64797C8.3844 2.38296 7.82773 3.55927 7.97794 4.68672C9.08015 4.77201 10.206 4.12662 10.8921 3.29571Z" fill="black"/>
</g>
<defs>
<clipPath id="clip0_48_307">
<rect width="16" height="19.6822" fill="white" transform="translate(0 0.158905)"/>
</clipPath>
</defs>
</svg>
