<svg width="77" height="77" viewBox="0 0 77 77" fill="none" xmlns="http://www.w3.org/2000/svg">
<g filter="url(#filter0_d_2023_2567)">
<rect x="4" width="69" height="69" rx="15" fill="url(#paint0_linear_2023_2567)"/>
<rect x="5" y="1" width="67" height="67" rx="14" stroke="#10B981" stroke-opacity="0.4" stroke-width="2"/>
<g clip-path="url(#clip0_2023_2567)">
<path fill-rule="evenodd" clip-rule="evenodd" d="M55.388 32.0814C55.6056 31.9474 55.7784 31.7515 55.8842 31.5188C55.99 31.2862 56.024 31.0272 55.982 30.7751L54.2848 20.6437C54.2566 20.4754 54.1952 20.3144 54.1041 20.1701C54.013 20.0258 53.8941 19.901 53.7544 19.8031C53.6146 19.7053 53.4567 19.6362 53.29 19.5999C53.1232 19.5637 52.9509 19.561 52.7831 19.592L43.166 21.3791C42.9197 21.4251 42.6922 21.542 42.5114 21.7154C42.3306 21.8889 42.2045 22.1115 42.1485 22.3557C42.0925 22.5999 42.1091 22.8551 42.1962 23.09C42.2833 23.325 42.4371 23.5293 42.6388 23.678L46.8868 26.81L39.5685 37.2628L32.888 32.5777C32.5391 32.3335 32.1075 32.2377 31.688 32.3115C31.2685 32.3852 30.8955 32.6225 30.6508 32.9711L20.288 47.762C20.1669 47.9349 20.0811 48.1299 20.0354 48.336C19.9897 48.542 19.9851 48.7551 20.0217 48.9629C20.0584 49.1708 20.1356 49.3694 20.249 49.5474C20.3624 49.7254 20.5098 49.8793 20.6827 50.0004C21.0319 50.2449 21.4639 50.3407 21.8836 50.2666C22.0915 50.23 22.2901 50.1528 22.4681 50.0393C22.6461 49.9259 22.8001 49.7786 22.9211 49.6057L32.3583 36.1314L39.0388 40.8165C39.3881 41.0605 39.8199 41.1559 40.2394 41.0816C40.6589 41.0074 41.0317 40.7696 41.276 40.4205L49.4711 28.7205L53.948 32.0223C54.1544 32.1743 54.4015 32.2612 54.6576 32.2717C54.9138 32.2822 55.1672 32.216 55.3854 32.0814" fill="#32FFBB"/>
</g>
</g>
<defs>
<filter id="filter0_d_2023_2567" x="0" y="0" width="77" height="77" filterUnits="userSpaceOnUse" color-interpolation-filters="sRGB">
<feFlood flood-opacity="0" result="BackgroundImageFix"/>
<feColorMatrix in="SourceAlpha" type="matrix" values="0 0 0 0 0 0 0 0 0 0 0 0 0 0 0 0 0 0 127 0" result="hardAlpha"/>
<feOffset dy="4"/>
<feGaussianBlur stdDeviation="2"/>
<feComposite in2="hardAlpha" operator="out"/>
<feColorMatrix type="matrix" values="0 0 0 0 0.0627451 0 0 0 0 0.72549 0 0 0 0 0.505882 0 0 0 0.2 0"/>
<feBlend mode="normal" in2="BackgroundImageFix" result="effect1_dropShadow_2023_2567"/>
<feBlend mode="normal" in="SourceGraphic" in2="effect1_dropShadow_2023_2567" result="shape"/>
</filter>
<linearGradient id="paint0_linear_2023_2567" x1="14" y1="4.5" x2="69" y2="66" gradientUnits="userSpaceOnUse">
<stop stop-color="#10B981" stop-opacity="0.3"/>
<stop offset="1" stop-color="#10B981" stop-opacity="0.2"/>
</linearGradient>
<clipPath id="clip0_2023_2567">
<rect width="36" height="36" fill="white" transform="translate(20 17)"/>
</clipPath>
</defs>
</svg>
