<svg width="77" height="77" viewBox="0 0 77 77" fill="none" xmlns="http://www.w3.org/2000/svg">
<g filter="url(#filter0_d_2023_246)">
<rect x="4" width="69" height="69" rx="15" fill="url(#paint0_linear_2023_246)" shape-rendering="crispEdges"/>
<rect x="5" y="1" width="67" height="67" rx="14" stroke="#3B82F6" stroke-opacity="0.4" stroke-width="2" shape-rendering="crispEdges"/>
</g>
<g clip-path="url(#clip0_2023_246)">
<path d="M51.0695 27.6919L50.7005 28.5409C50.6428 28.6792 50.5455 28.7973 50.4208 28.8803C50.2962 28.9634 50.1497 29.0077 50 29.0077C49.8502 29.0077 49.7037 28.9634 49.5791 28.8803C49.4544 28.7973 49.3571 28.6792 49.2995 28.5409L48.9305 27.6919C48.2817 26.19 47.0935 24.9858 45.6005 24.3169L44.462 23.8084C44.3238 23.7449 44.2068 23.6431 44.1248 23.5151C44.0428 23.387 43.9992 23.2382 43.9992 23.0862C43.9992 22.9341 44.0428 22.7853 44.1248 22.6573C44.2068 22.5293 44.3238 22.4274 44.462 22.3639L45.5375 21.8854C47.0681 21.1975 48.2765 19.9487 48.914 18.3964L49.295 17.4799C49.3507 17.3379 49.4479 17.2161 49.5739 17.1302C49.7 17.0442 49.8489 16.9983 50.0015 16.9983C50.154 16.9983 50.303 17.0442 50.429 17.1302C50.555 17.2161 50.6522 17.3379 50.708 17.4799L51.0875 18.3949C51.7242 19.9475 52.9321 21.1968 54.4625 21.8854L55.5395 22.3654C55.6772 22.4291 55.7937 22.5309 55.8755 22.6588C55.9572 22.7866 56.0006 22.9352 56.0006 23.0869C56.0006 23.2386 55.9572 23.3872 55.8755 23.5151C55.7937 23.6429 55.6772 23.7447 55.5395 23.8084L54.3995 24.3154C52.9067 24.985 51.7191 26.1897 51.071 27.6919M33.5 19.9999C36.414 19.9995 39.2286 21.0594 41.4185 22.9818C43.6084 24.9043 45.024 27.5579 45.401 30.4474L48.776 35.7559C48.998 36.1054 48.953 36.6259 48.4385 36.8479L45.5 38.1049V42.4999C45.5 43.2956 45.1839 44.0586 44.6213 44.6212C44.0587 45.1838 43.2956 45.4999 42.5 45.4999H39.5015L39.5 49.9999H26V44.4589C26 42.6889 25.346 41.0134 24.134 39.5014C22.7206 37.7367 21.8345 35.6086 21.5778 33.3623C21.3212 31.116 21.7043 28.8428 22.6831 26.8048C23.6619 24.7667 25.1966 23.0466 27.1104 21.8427C29.0241 20.6388 31.239 20 33.5 19.9999ZM51.731 44.1529L49.2335 42.4879C50.7148 40.2719 51.5037 37.6654 51.5 34.9999C51.499 34.2329 51.437 33.4829 51.314 32.7499L54.2285 31.9999C54.4085 32.9749 54.499 33.9749 54.5 34.9999C54.5 38.3869 53.48 41.5339 51.731 44.1529Z" fill="#3B82F6"/>
</g>
<defs>
<filter id="filter0_d_2023_246" x="0" y="0" width="77" height="77" filterUnits="userSpaceOnUse" color-interpolation-filters="sRGB">
<feFlood flood-opacity="0" result="BackgroundImageFix"/>
<feColorMatrix in="SourceAlpha" type="matrix" values="0 0 0 0 0 0 0 0 0 0 0 0 0 0 0 0 0 0 127 0" result="hardAlpha"/>
<feOffset dy="4"/>
<feGaussianBlur stdDeviation="2"/>
<feComposite in2="hardAlpha" operator="out"/>
<feColorMatrix type="matrix" values="0 0 0 0 0.231373 0 0 0 0 0.509804 0 0 0 0 0.964706 0 0 0 0.2 0"/>
<feBlend mode="normal" in2="BackgroundImageFix" result="effect1_dropShadow_2023_246"/>
<feBlend mode="normal" in="SourceGraphic" in2="effect1_dropShadow_2023_246" result="shape"/>
</filter>
<linearGradient id="paint0_linear_2023_246" x1="11.5" y1="5.5" x2="68.5" y2="69" gradientUnits="userSpaceOnUse">
<stop stop-color="#3B82F6" stop-opacity="0.3"/>
<stop offset="1" stop-color="#3B82F6" stop-opacity="0.2"/>
</linearGradient>
<clipPath id="clip0_2023_246">
<rect width="36" height="36" fill="white" transform="translate(20 17)"/>
</clipPath>
</defs>
</svg>
