<svg width="18" height="17" viewBox="0 0 18 17" fill="none" xmlns="http://www.w3.org/2000/svg">
<path fill-rule="evenodd" clip-rule="evenodd" d="M9 16.375C10.0834 16.375 11.1562 16.1713 12.1571 15.7756C13.1581 15.3798 14.0675 14.7997 14.8336 14.0685C15.5997 13.3372 16.2074 12.4691 16.622 11.5136C17.0366 10.5582 17.25 9.53416 17.25 8.5C17.25 7.46584 17.0366 6.44181 16.622 5.48637C16.2074 4.53093 15.5997 3.6628 14.8336 2.93153C14.0675 2.20027 13.1581 1.6202 12.1571 1.22445C11.1562 0.828693 10.0834 0.625 9 0.625C6.81196 0.625 4.71354 1.45468 3.16637 2.93153C1.61919 4.40838 0.75 6.41142 0.75 8.5C0.75 10.5886 1.61919 12.5916 3.16637 14.0685C4.71354 15.5453 6.81196 16.375 9 16.375ZM8.78733 11.685L13.3707 6.435L11.9627 5.315L8.021 9.82913L5.98142 7.88138L4.68525 9.11862L7.43525 11.7436L8.14475 12.4209L8.78733 11.685Z" fill="#10B981"/>
</svg>
