<svg width="684" height="768" viewBox="0 0 684 768" fill="none" xmlns="http://www.w3.org/2000/svg">
<rect width="684" height="768" rx="30" fill="black"/>
<path d="M62.928 100.576C62.928 102.272 62.528 103.872 61.728 105.376C60.928 106.88 59.648 108.112 57.888 109.072C56.128 110 53.872 110.464 51.12 110.464H45.072V124H39.6V90.64H51.12C53.68 90.64 55.84 91.088 57.6 91.984C59.392 92.848 60.72 94.032 61.584 95.536C62.48 97.04 62.928 98.72 62.928 100.576ZM51.12 106C53.2 106 54.752 105.536 55.776 104.608C56.8 103.648 57.312 102.304 57.312 100.576C57.312 96.928 55.248 95.104 51.12 95.104H45.072V106H51.12ZM73.6189 101.392C74.4189 100.048 75.4749 99.008 76.7869 98.272C78.1309 97.504 79.7149 97.12 81.5389 97.12V102.784H80.1469C78.0029 102.784 76.3709 103.328 75.2509 104.416C74.1629 105.504 73.6189 107.392 73.6189 110.08V124H68.1469V97.552H73.6189V101.392ZM110.809 110.128C110.809 111.12 110.745 112.016 110.617 112.816H90.4088C90.5688 114.928 91.3528 116.624 92.7608 117.904C94.1688 119.184 95.8968 119.824 97.9448 119.824C100.889 119.824 102.969 118.592 104.185 116.128H110.089C109.289 118.56 107.833 120.56 105.721 122.128C103.641 123.664 101.049 124.432 97.9448 124.432C95.4168 124.432 93.1448 123.872 91.1288 122.752C89.1448 121.6 87.5768 120 86.4248 117.952C85.3048 115.872 84.7448 113.472 84.7448 110.752C84.7448 108.032 85.2888 105.648 86.3768 103.6C87.4968 101.52 89.0488 99.92 91.0328 98.8C93.0488 97.68 95.3528 97.12 97.9448 97.12C100.441 97.12 102.665 97.664 104.617 98.752C106.569 99.84 108.089 101.376 109.177 103.36C110.265 105.312 110.809 107.568 110.809 110.128ZM105.097 108.4C105.065 106.384 104.345 104.768 102.937 103.552C101.529 102.336 99.7848 101.728 97.7048 101.728C95.8168 101.728 94.2008 102.336 92.8568 103.552C91.5128 104.736 90.7128 106.352 90.4568 108.4H105.097ZM97.8008 91.552L90.9368 95.68V91.408L97.8008 87.424L104.665 91.408V95.68L97.8008 91.552ZM122.578 102.016V116.656C122.578 117.648 122.802 118.368 123.25 118.816C123.73 119.232 124.53 119.44 125.65 119.44H129.01V124H124.69C122.226 124 120.338 123.424 119.026 122.272C117.714 121.12 117.058 119.248 117.058 116.656V102.016H113.938V97.552H117.058V90.976H122.578V97.552H129.01V102.016H122.578ZM144.698 110.656C144.698 108 145.242 105.648 146.33 103.6C147.45 101.552 148.954 99.968 150.842 98.848C152.762 97.696 154.874 97.12 157.178 97.12C159.258 97.12 161.066 97.536 162.602 98.368C164.17 99.168 165.418 100.176 166.346 101.392V97.552H171.866V124H166.346V120.064C165.418 121.312 164.154 122.352 162.554 123.184C160.954 124.016 159.13 124.432 157.082 124.432C154.81 124.432 152.73 123.856 150.842 122.704C148.954 121.52 147.45 119.888 146.33 117.808C145.242 115.696 144.698 113.312 144.698 110.656ZM166.346 110.752C166.346 108.928 165.962 107.344 165.194 106C164.458 104.656 163.482 103.632 162.266 102.928C161.05 102.224 159.738 101.872 158.33 101.872C156.922 101.872 155.61 102.224 154.394 102.928C153.178 103.6 152.186 104.608 151.418 105.952C150.682 107.264 150.314 108.832 150.314 110.656C150.314 112.48 150.682 114.08 151.418 115.456C152.186 116.832 153.178 117.888 154.394 118.624C155.642 119.328 156.954 119.68 158.33 119.68C159.738 119.68 161.05 119.328 162.266 118.624C163.482 117.92 164.458 116.896 165.194 115.552C165.962 114.176 166.346 112.576 166.346 110.752ZM164.138 91.648V95.68L153.53 90.448V85.792L164.138 91.648ZM196.994 101.392C197.794 100.048 198.85 99.008 200.162 98.272C201.506 97.504 203.09 97.12 204.914 97.12V102.784H203.522C201.378 102.784 199.746 103.328 198.626 104.416C197.538 105.504 196.994 107.392 196.994 110.08V124H191.522V97.552H196.994V101.392ZM234.184 110.128C234.184 111.12 234.12 112.016 233.992 112.816H213.784C213.944 114.928 214.728 116.624 216.136 117.904C217.544 119.184 219.272 119.824 221.32 119.824C224.264 119.824 226.344 118.592 227.56 116.128H233.464C232.664 118.56 231.208 120.56 229.096 122.128C227.016 123.664 224.424 124.432 221.32 124.432C218.792 124.432 216.52 123.872 214.504 122.752C212.52 121.6 210.952 120 209.8 117.952C208.68 115.872 208.12 113.472 208.12 110.752C208.12 108.032 208.664 105.648 209.752 103.6C210.872 101.52 212.424 99.92 214.408 98.8C216.424 97.68 218.728 97.12 221.32 97.12C223.816 97.12 226.04 97.664 227.992 98.752C229.944 99.84 231.464 101.376 232.552 103.36C233.64 105.312 234.184 107.568 234.184 110.128ZM228.472 108.4C228.44 106.384 227.72 104.768 226.312 103.552C224.904 102.336 223.16 101.728 221.08 101.728C219.192 101.728 217.576 102.336 216.232 103.552C214.888 104.736 214.088 106.352 213.832 108.4H228.472ZM245.041 88.48V124H239.569V88.48H245.041ZM250.401 110.656C250.401 108 250.945 105.648 252.033 103.6C253.153 101.552 254.657 99.968 256.545 98.848C258.465 97.696 260.577 97.12 262.881 97.12C264.961 97.12 266.769 97.536 268.305 98.368C269.873 99.168 271.121 100.176 272.049 101.392V97.552H277.569V124H272.049V120.064C271.121 121.312 269.857 122.352 268.257 123.184C266.657 124.016 264.833 124.432 262.785 124.432C260.513 124.432 258.433 123.856 256.545 122.704C254.657 121.52 253.153 119.888 252.033 117.808C250.945 115.696 250.401 113.312 250.401 110.656ZM272.049 110.752C272.049 108.928 271.665 107.344 270.897 106C270.161 104.656 269.185 103.632 267.969 102.928C266.753 102.224 265.441 101.872 264.033 101.872C262.625 101.872 261.313 102.224 260.097 102.928C258.881 103.6 257.889 104.608 257.121 105.952C256.385 107.264 256.017 108.832 256.017 110.656C256.017 112.48 256.385 114.08 257.121 115.456C257.889 116.832 258.881 117.888 260.097 118.624C261.345 119.328 262.657 119.68 264.033 119.68C265.441 119.68 266.753 119.328 267.969 118.624C269.185 117.92 270.161 116.896 270.897 115.552C271.665 114.176 272.049 112.576 272.049 110.752ZM298.1 97.12C300.18 97.12 302.036 97.552 303.668 98.416C305.332 99.28 306.628 100.56 307.556 102.256C308.484 103.952 308.948 106 308.948 108.4V124H303.524V109.216C303.524 106.848 302.932 105.04 301.748 103.792C300.564 102.512 298.948 101.872 296.9 101.872C294.852 101.872 293.22 102.512 292.004 103.792C290.82 105.04 290.228 106.848 290.228 109.216V124H284.756V97.552H290.228V100.576C291.124 99.488 292.26 98.64 293.636 98.032C295.044 97.424 296.532 97.12 298.1 97.12ZM314.104 110.752C314.104 108.032 314.648 105.648 315.736 103.6C316.856 101.52 318.392 99.92 320.344 98.8C322.296 97.68 324.536 97.12 327.064 97.12C330.264 97.12 332.904 97.888 334.984 99.424C337.096 100.928 338.52 103.088 339.256 105.904H333.352C332.872 104.592 332.104 103.568 331.048 102.832C329.992 102.096 328.664 101.728 327.064 101.728C324.824 101.728 323.032 102.528 321.688 104.128C320.376 105.696 319.72 107.904 319.72 110.752C319.72 113.6 320.376 115.824 321.688 117.424C323.032 119.024 324.824 119.824 327.064 119.824C330.232 119.824 332.328 118.432 333.352 115.648H339.256C338.488 118.336 337.048 120.48 334.936 122.08C332.824 123.648 330.2 124.432 327.064 124.432C324.536 124.432 322.296 123.872 320.344 122.752C318.392 121.6 316.856 120 315.736 117.952C314.648 115.872 314.104 113.472 314.104 110.752ZM368.949 110.128C368.949 111.12 368.885 112.016 368.757 112.816H348.549C348.709 114.928 349.493 116.624 350.901 117.904C352.309 119.184 354.037 119.824 356.085 119.824C359.029 119.824 361.109 118.592 362.325 116.128H368.229C367.429 118.56 365.973 120.56 363.861 122.128C361.781 123.664 359.189 124.432 356.085 124.432C353.557 124.432 351.285 123.872 349.269 122.752C347.285 121.6 345.717 120 344.565 117.952C343.445 115.872 342.885 113.472 342.885 110.752C342.885 108.032 343.429 105.648 344.517 103.6C345.637 101.52 347.189 99.92 349.173 98.8C351.189 97.68 353.493 97.12 356.085 97.12C358.581 97.12 360.805 97.664 362.757 98.752C364.709 99.84 366.229 101.376 367.317 103.36C368.405 105.312 368.949 107.568 368.949 110.128ZM363.237 108.4C363.205 106.384 362.485 104.768 361.077 103.552C359.669 102.336 357.925 101.728 355.845 101.728C353.957 101.728 352.341 102.336 350.997 103.552C349.653 104.736 348.853 106.352 348.597 108.4H363.237ZM379.806 101.392C380.606 100.048 381.662 99.008 382.974 98.272C384.318 97.504 385.902 97.12 387.726 97.12V102.784H386.334C384.19 102.784 382.558 103.328 381.438 104.416C380.35 105.504 379.806 107.392 379.806 110.08V124H374.334V97.552H379.806V101.392ZM415.449 119.104L422.937 97.552H428.745L418.665 124H412.137L402.105 97.552H407.961L415.449 119.104ZM444.353 124.432C441.857 124.432 439.601 123.872 437.585 122.752C435.569 121.6 433.985 120 432.833 117.952C431.681 115.872 431.105 113.472 431.105 110.752C431.105 108.064 431.697 105.68 432.881 103.6C434.065 101.52 435.681 99.92 437.729 98.8C439.777 97.68 442.065 97.12 444.593 97.12C447.121 97.12 449.409 97.68 451.457 98.8C453.505 99.92 455.121 101.52 456.305 103.6C457.489 105.68 458.081 108.064 458.081 110.752C458.081 113.44 457.473 115.824 456.257 117.904C455.041 119.984 453.377 121.6 451.265 122.752C449.185 123.872 446.881 124.432 444.353 124.432ZM444.353 119.68C445.761 119.68 447.073 119.344 448.289 118.672C449.537 118 450.545 116.992 451.313 115.648C452.081 114.304 452.465 112.672 452.465 110.752C452.465 108.832 452.097 107.216 451.361 105.904C450.625 104.56 449.649 103.552 448.433 102.88C447.217 102.208 445.905 101.872 444.497 101.872C443.089 101.872 441.777 102.208 440.561 102.88C439.377 103.552 438.433 104.56 437.729 105.904C437.025 107.216 436.673 108.832 436.673 110.752C436.673 113.6 437.393 115.808 438.833 117.376C440.305 118.912 442.145 119.68 444.353 119.68ZM473.091 124.432C471.011 124.432 469.139 124.064 467.475 123.328C465.843 122.56 464.547 121.536 463.587 120.256C462.627 118.944 462.115 117.488 462.051 115.888H467.715C467.811 117.008 468.339 117.952 469.299 118.72C470.291 119.456 471.523 119.824 472.995 119.824C474.531 119.824 475.715 119.536 476.547 118.96C477.411 118.352 477.843 117.584 477.843 116.656C477.843 115.664 477.363 114.928 476.403 114.448C475.475 113.968 473.987 113.44 471.939 112.864C469.955 112.32 468.339 111.792 467.091 111.28C465.843 110.768 464.755 109.984 463.827 108.928C462.931 107.872 462.483 106.48 462.483 104.752C462.483 103.344 462.899 102.064 463.731 100.912C464.563 99.728 465.747 98.8 467.283 98.128C468.851 97.456 470.643 97.12 472.659 97.12C475.667 97.12 478.083 97.888 479.907 99.424C481.763 100.928 482.755 102.992 482.883 105.616H477.411C477.315 104.432 476.835 103.488 475.971 102.784C475.107 102.08 473.939 101.728 472.467 101.728C471.027 101.728 469.923 102 469.155 102.544C468.387 103.088 468.003 103.808 468.003 104.704C468.003 105.408 468.259 106 468.771 106.48C469.283 106.96 469.907 107.344 470.643 107.632C471.379 107.888 472.467 108.224 473.907 108.64C475.827 109.152 477.395 109.68 478.611 110.224C479.859 110.736 480.931 111.504 481.827 112.528C482.723 113.552 483.187 114.912 483.219 116.608C483.219 118.112 482.803 119.456 481.971 120.64C481.139 121.824 479.955 122.752 478.419 123.424C476.915 124.096 475.139 124.432 473.091 124.432ZM45.072 159.44C46 158.224 47.264 157.2 48.864 156.368C50.464 155.536 52.272 155.12 54.288 155.12C56.592 155.12 58.688 155.696 60.576 156.848C62.496 157.968 64 159.552 65.088 161.6C66.176 163.648 66.72 166 66.72 168.656C66.72 171.312 66.176 173.696 65.088 175.808C64 177.888 62.496 179.52 60.576 180.704C58.688 181.856 56.592 182.432 54.288 182.432C52.272 182.432 50.48 182.032 48.912 181.232C47.344 180.4 46.064 179.376 45.072 178.16V194.576H39.6V155.552H45.072V159.44ZM61.152 168.656C61.152 166.832 60.768 165.264 60 163.952C59.264 162.608 58.272 161.6 57.024 160.928C55.808 160.224 54.496 159.872 53.088 159.872C51.712 159.872 50.4 160.224 49.152 160.928C47.936 161.632 46.944 162.656 46.176 164C45.44 165.344 45.072 166.928 45.072 168.752C45.072 170.576 45.44 172.176 46.176 173.552C46.944 174.896 47.936 175.92 49.152 176.624C50.4 177.328 51.712 177.68 53.088 177.68C54.496 177.68 55.808 177.328 57.024 176.624C58.272 175.888 59.264 174.832 60 173.456C60.768 172.08 61.152 170.48 61.152 168.656ZM96.0833 155.552V182H90.6113V178.88C89.7473 179.968 88.6113 180.832 87.2033 181.472C85.8273 182.08 84.3553 182.384 82.7873 182.384C80.7073 182.384 78.8353 181.952 77.1713 181.088C75.5393 180.224 74.2433 178.944 73.2833 177.248C72.3553 175.552 71.8913 173.504 71.8913 171.104V155.552H77.3153V170.288C77.3153 172.656 77.9073 174.48 79.0913 175.76C80.2753 177.008 81.8913 177.632 83.9393 177.632C85.9873 177.632 87.6033 177.008 88.7873 175.76C90.0033 174.48 90.6113 172.656 90.6113 170.288V155.552H96.0833ZM108.775 159.488C109.703 158.208 110.967 157.168 112.567 156.368C114.199 155.536 116.007 155.12 117.991 155.12C120.327 155.12 122.439 155.68 124.327 156.8C126.215 157.92 127.703 159.52 128.791 161.6C129.879 163.648 130.423 166 130.423 168.656C130.423 171.312 129.879 173.696 128.791 175.808C127.703 177.888 126.199 179.52 124.279 180.704C122.391 181.856 120.295 182.432 117.991 182.432C115.943 182.432 114.119 182.032 112.519 181.232C110.951 180.432 109.703 179.408 108.775 178.16V182H103.303V146.48H108.775V159.488ZM124.855 168.656C124.855 166.832 124.471 165.264 123.703 163.952C122.967 162.608 121.975 161.6 120.727 160.928C119.511 160.224 118.199 159.872 116.791 159.872C115.415 159.872 114.103 160.224 112.855 160.928C111.639 161.632 110.647 162.656 109.879 164C109.143 165.344 108.775 166.928 108.775 168.752C108.775 170.576 109.143 172.176 109.879 173.552C110.647 174.896 111.639 175.92 112.855 176.624C114.103 177.328 115.415 177.68 116.791 177.68C118.199 177.68 119.511 177.328 120.727 176.624C121.975 175.888 122.967 174.832 123.703 173.456C124.471 172.08 124.855 170.48 124.855 168.656ZM145.434 182.432C143.354 182.432 141.482 182.064 139.818 181.328C138.186 180.56 136.89 179.536 135.93 178.256C134.97 176.944 134.458 175.488 134.394 173.888H140.058C140.154 175.008 140.682 175.952 141.642 176.72C142.634 177.456 143.866 177.824 145.338 177.824C146.874 177.824 148.058 177.536 148.89 176.96C149.754 176.352 150.186 175.584 150.186 174.656C150.186 173.664 149.706 172.928 148.746 172.448C147.818 171.968 146.33 171.44 144.282 170.864C142.298 170.32 140.682 169.792 139.434 169.28C138.186 168.768 137.098 167.984 136.17 166.928C135.274 165.872 134.826 164.48 134.826 162.752C134.826 161.344 135.242 160.064 136.074 158.912C136.906 157.728 138.09 156.8 139.626 156.128C141.194 155.456 142.986 155.12 145.002 155.12C148.01 155.12 150.426 155.888 152.25 157.424C154.106 158.928 155.098 160.992 155.226 163.616H149.754C149.658 162.432 149.178 161.488 148.314 160.784C147.45 160.08 146.282 159.728 144.81 159.728C143.37 159.728 142.266 160 141.498 160.544C140.73 161.088 140.346 161.808 140.346 162.704C140.346 163.408 140.602 164 141.114 164.48C141.626 164.96 142.25 165.344 142.986 165.632C143.722 165.888 144.81 166.224 146.25 166.64C148.17 167.152 149.738 167.68 150.954 168.224C152.202 168.736 153.274 169.504 154.17 170.528C155.066 171.552 155.53 172.912 155.562 174.608C155.562 176.112 155.146 177.456 154.314 178.64C153.482 179.824 152.298 180.752 150.762 181.424C149.258 182.096 147.482 182.432 145.434 182.432ZM182.92 148.16C186.184 148.16 188.792 149.056 190.744 150.848C192.728 152.64 193.72 155.088 193.72 158.192C193.72 161.424 192.696 163.856 190.648 165.488C188.6 167.12 185.88 167.936 182.488 167.936L182.296 171.728H177.544L177.304 164.192H178.888C181.992 164.192 184.36 163.776 185.992 162.944C187.656 162.112 188.488 160.528 188.488 158.192C188.488 156.496 187.992 155.168 187 154.208C186.04 153.248 184.696 152.768 182.968 152.768C181.24 152.768 179.88 153.232 178.888 154.16C177.896 155.088 177.4 156.384 177.4 158.048H172.264C172.264 156.128 172.696 154.416 173.56 152.912C174.424 151.408 175.656 150.24 177.256 149.408C178.888 148.576 180.776 148.16 182.92 148.16ZM179.848 182.336C178.856 182.336 178.024 182 177.352 181.328C176.68 180.656 176.344 179.824 176.344 178.832C176.344 177.84 176.68 177.008 177.352 176.336C178.024 175.664 178.856 175.328 179.848 175.328C180.808 175.328 181.624 175.664 182.296 176.336C182.968 177.008 183.304 177.84 183.304 178.832C183.304 179.824 182.968 180.656 182.296 181.328C181.624 182 180.808 182.336 179.848 182.336Z" fill="#6BC5D2"/>
<g filter="url(#filter0_f_48_476)">
<path d="M483.455 409C483.455 490.738 424.813 550 344.455 550C256.455 530.5 184.955 466 216.455 409C166.955 350 264.098 281 344.455 281C424.813 281 525.455 320.5 483.455 409Z" fill="#3496A4" fill-opacity="0.38"/>
</g>
<path d="M416.142 424.041C421.009 424.041 424.955 420.243 424.955 415.557C424.955 410.872 421.009 407.074 416.142 407.074C411.275 407.074 407.33 410.872 407.33 415.557C407.33 420.243 411.275 424.041 416.142 424.041Z" fill="#6BC5D2"/>
<path d="M377.171 368.049H390.096C391.467 371.254 394.6 373.328 398.321 373.328C403.217 373.328 407.134 369.557 407.134 364.844C407.134 360.131 403.217 356.361 398.321 356.361C394.6 356.361 391.467 358.623 390.096 361.639H377.171C376.191 360.32 374.429 359.377 372.47 359.377C369.337 359.377 366.791 361.828 366.791 364.844C366.791 366.73 367.77 368.238 369.141 369.369V378.23H350.341V369.369C351.712 368.426 352.691 366.73 352.691 364.844C352.691 361.828 350.145 359.377 347.011 359.377C343.878 359.377 341.332 361.828 341.332 364.844C341.332 366.73 342.311 368.238 343.682 369.369V378.23H324.882V369.369C326.253 368.426 327.232 366.73 327.232 364.844C327.232 362.959 326.253 361.451 324.882 360.32V352.402C328.211 351.082 330.365 348.066 330.365 344.484C330.365 339.77 326.448 336 321.553 336C316.657 336 312.74 339.77 312.74 344.484C312.74 348.066 315.09 351.082 318.223 352.402V360.32C316.852 361.262 315.873 362.959 315.873 364.844C315.873 366.73 316.852 368.238 318.223 369.369V378.23H307.06V388.033H298.639C297.66 386.713 295.898 385.771 293.939 385.771C291.981 385.771 290.414 386.713 289.239 388.033H270.635V398.213C267.501 399.344 265.151 402.549 265.151 406.131C265.151 410.844 269.068 414.615 273.964 414.615C278.86 414.615 282.776 410.844 282.776 406.131C282.776 402.549 280.426 399.533 277.293 398.213V394.443H289.631C290.61 395.762 292.373 396.705 294.331 396.705C296.289 396.705 297.856 395.762 299.031 394.443H307.648V412.541H299.031C298.052 411.221 296.289 410.279 294.331 410.279C291.198 410.279 288.652 412.73 288.652 415.746C288.652 418.762 291.198 421.213 294.331 421.213C296.289 421.213 297.856 420.271 299.031 418.951H307.452V437.049H298.835C297.856 435.73 296.094 434.787 294.135 434.787C292.177 434.787 290.61 435.73 289.435 437.049H281.993C280.622 433.844 277.489 431.771 273.768 431.771C268.872 431.771 264.955 435.541 264.955 440.254C264.955 444.967 268.872 448.738 273.768 448.738C277.489 448.738 280.622 446.475 281.993 443.459H289.435C290.414 444.779 292.177 445.721 294.135 445.721C296.094 445.721 297.66 444.779 298.835 443.459H307.256V452.885H318.419V461.746C318.223 461.934 318.027 462.123 317.636 462.311H302.36C300.989 459.107 297.856 457.033 294.135 457.033C289.239 457.033 285.322 460.803 285.322 465.516C285.322 470.23 289.239 474 294.135 474C297.856 474 300.989 471.738 302.36 468.721H316.657C317.636 470.418 319.398 471.738 321.748 471.738C324.882 471.738 327.428 469.287 327.428 466.27C327.428 464.385 326.448 462.877 325.078 461.746V452.885H343.878V461.746C342.507 462.689 341.528 464.385 341.528 466.27C341.528 469.287 344.074 471.738 347.207 471.738C350.341 471.738 352.887 469.287 352.887 466.27C352.887 464.385 351.907 462.877 350.537 461.746V452.885H369.337V461.746C367.966 462.689 366.987 464.385 366.987 466.27C366.987 469.287 369.533 471.738 372.666 471.738C375.8 471.738 378.346 469.287 378.346 466.27C378.346 464.385 377.366 462.877 375.996 461.746V452.885C381.283 452.697 385.396 448.549 385.396 443.459H393.817C394.209 444.025 394.6 444.402 395.188 444.779V457.598C391.858 458.918 389.704 461.934 389.704 465.516C389.704 470.23 393.621 474 398.517 474C403.413 474 407.33 470.23 407.33 465.516C407.33 461.934 404.98 458.918 401.846 457.598V444.779C403.217 443.836 404.196 442.139 404.196 440.254C404.196 437.238 401.65 434.787 398.517 434.787C396.559 434.787 394.992 435.73 393.817 437.049H385.396V418.951H393.817C394.796 420.271 396.559 421.213 398.517 421.213C401.65 421.213 404.196 418.762 404.196 415.746C404.196 412.73 401.65 410.279 398.517 410.279C396.559 410.279 394.992 411.221 393.817 412.541H385.2V394.443H393.621C394.6 395.762 396.363 396.705 398.321 396.705C401.455 396.705 404 394.254 404 391.238C404 388.221 401.455 385.771 398.321 385.771C396.363 385.771 394.796 386.713 393.621 388.033H385.2V378.23H375.8V369.369C376.387 368.992 376.779 368.426 377.171 368.049ZM358.174 404.246V426.869H334.674V404.246H358.174Z" fill="#6BC5D2"/>
<defs>
<filter id="filter0_f_48_476" x="83" y="161" width="530.33" height="509" filterUnits="userSpaceOnUse" color-interpolation-filters="sRGB">
<feFlood flood-opacity="0" result="BackgroundImageFix"/>
<feBlend mode="normal" in="SourceGraphic" in2="BackgroundImageFix" result="shape"/>
<feGaussianBlur stdDeviation="60" result="effect1_foregroundBlur_48_476"/>
</filter>
</defs>
</svg>
