<svg width="88" height="38" viewBox="0 0 88 38" fill="none" xmlns="http://www.w3.org/2000/svg">
<path d="M-1.59714 6.3645L-24 28.7674H-12.7986L-10.0018 25.9707H9.60429L3.99637 20.3771H-4.39389L4.01078 11.9724L-1.59714 6.3645Z" fill="#B7BAC7"/>
<path d="M-1.59717 6.3645L-7.19067 11.958L9.60427 28.7529H20.8057L-1.59717 6.3645Z" fill="#B7BAC7"/>
<path d="M37.6006 0.770752L26.3992 11.9722L20.8057 6.37867H9.60421L20.8057 17.5801L1.14185 37.2294H12.3433L26.3992 23.1736L31.9927 28.7671H43.1942L31.9927 17.5657L48.8021 0.770752H37.6006Z" fill="#B7BAC7"/>
<path d="M54.4102 6.3645L32.0073 28.7674H43.2088L54.4102 17.566L65.6117 28.7674L88.0002 6.3645H76.7987L65.5973 17.566L54.4102 6.3645Z" fill="#B7BAC7"/>
<path d="M46.0056 28.7673H62.8006L54.4103 20.377L46.0056 28.7673Z" fill="#B7BAC7"/>
<path d="M57.2069 28.7673H62.8004L54.4102 20.377L57.2069 28.7673Z" fill="#B7BAC7"/>
</svg>
