<svg width="112" height="56" viewBox="0 0 112 56" fill="none" xmlns="http://www.w3.org/2000/svg">
<path fill-rule="evenodd" clip-rule="evenodd" d="M35.8311 36.1581L37.2288 32.9101C38.7386 34.039 40.7501 34.6259 42.7347 34.6259C44.1997 34.6259 45.1271 34.0614 45.1271 33.2058C45.1047 30.8135 36.3507 32.6861 36.2835 26.6874C36.2611 23.641 38.9671 21.2935 42.8019 21.2935C45.0823 21.2935 47.3581 21.8579 48.9843 23.1437L47.6762 26.4589C46.1888 25.5091 44.3386 24.8327 42.5779 24.8327C41.3818 24.8327 40.5933 25.3971 40.5933 26.1184C40.6157 28.4659 49.4368 27.1802 49.5264 32.9101C49.5264 36.0237 46.8877 38.2144 43.0976 38.2144C40.32 38.2099 37.7709 37.5558 35.8311 36.1581V36.1581ZM89.5059 31.7363C88.8071 32.9549 87.4989 33.7882 85.9847 33.7882C83.7491 33.7882 81.9482 31.9827 81.9482 29.7517C81.9482 27.5207 83.7536 25.7152 85.9847 25.7152C87.4944 25.7152 88.8071 26.5485 89.5059 27.7671L93.3632 25.6256C91.9207 23.0541 89.1431 21.2935 85.9847 21.2935C81.312 21.2935 77.5219 25.0835 77.5219 29.7562C77.5219 34.4288 81.312 38.2189 85.9847 38.2189C89.1655 38.2189 91.9207 36.4806 93.3632 33.8867L89.5059 31.7363ZM51.4663 14.2733H56.2957V37.8963H51.4663V14.2733ZM95.2583 14.2733V37.8963H100.088V30.809L105.818 37.8963H112L104.711 29.4784L111.458 21.625H105.544L100.083 28.1434V14.2733H95.2583Z" fill="#B7BAC7"/>
<path d="M70.645 31.7812C69.9461 32.9326 68.5036 33.7882 66.8773 33.7882C64.6418 33.7882 62.8408 31.9828 62.8408 29.7518C62.8408 27.5207 64.6463 25.7153 66.8773 25.7153C68.5036 25.7153 69.9461 26.6158 70.645 27.7895V31.7812ZM70.645 21.6295V23.547C69.8565 22.2164 67.8943 21.2891 65.838 21.2891C61.5954 21.2891 58.2578 25.0343 58.2578 29.7294C58.2578 34.4244 61.5954 38.2145 65.838 38.2145C67.8898 38.2145 69.8521 37.2916 70.645 35.9566V37.874H75.4744V21.6295H70.645Z" fill="#B7BAC7"/>
<path fill-rule="evenodd" clip-rule="evenodd" d="M5.98086 31.7587C5.98086 33.4074 4.6503 34.738 3.00166 34.738C1.35302 34.738 0.0224609 33.4029 0.0224609 31.7587C0.0224609 30.1146 1.35302 28.7795 3.00166 28.7795H5.98086V31.7587ZM7.46822 31.7587C7.46822 30.1101 8.79878 28.7795 10.4474 28.7795C12.0961 28.7795 13.4266 30.1101 13.4266 31.7587V39.2045C13.4266 40.8532 12.0961 42.1837 10.4474 42.1837C8.79878 42.1837 7.46822 40.8532 7.46822 39.2045V31.7587Z" fill="#E01E5A"/>
<path fill-rule="evenodd" clip-rule="evenodd" d="M10.4474 19.8017C8.79872 19.8017 7.46816 18.4711 7.46816 16.8225C7.46816 15.1738 8.79872 13.8433 10.4474 13.8433C12.096 13.8433 13.4266 15.1738 13.4266 16.8225V19.8017H10.4474ZM10.4474 21.3114C12.096 21.3114 13.4266 22.642 13.4266 24.2906C13.4266 25.9393 12.096 27.2699 10.4474 27.2699H2.9792C1.33056 27.2699 0 25.9348 0 24.2906C0 22.6465 1.33056 21.3114 2.9792 21.3114H10.4474Z" fill="#36C5F0"/>
<path fill-rule="evenodd" clip-rule="evenodd" d="M22.382 24.2906C22.382 22.642 23.7126 21.3114 25.3612 21.3114C27.0099 21.3114 28.3404 22.642 28.3404 24.2906C28.3404 25.9393 27.0099 27.2699 25.3612 27.2699H22.382V24.2906ZM20.8947 24.2906C20.8947 25.9393 19.5641 27.2699 17.9155 27.2699C16.2668 27.2699 14.9363 25.9393 14.9363 24.2906V16.8225C14.9363 15.1738 16.2668 13.8433 17.9155 13.8433C19.5641 13.8433 20.8947 15.1738 20.8947 16.8225V24.2906Z" fill="#2EB67D"/>
<path fill-rule="evenodd" clip-rule="evenodd" d="M17.9155 36.2253C19.5641 36.2253 20.8947 37.5559 20.8947 39.2045C20.8947 40.8532 19.5641 42.1837 17.9155 42.1837C16.2668 42.1837 14.9363 40.8532 14.9363 39.2045V36.2253H17.9155ZM17.9155 34.738C16.2668 34.738 14.9363 33.4074 14.9363 31.7587C14.9363 30.1101 16.2668 28.7795 17.9155 28.7795H25.3836C27.0322 28.7795 28.3628 30.1101 28.3628 31.7587C28.3628 33.4074 27.0322 34.738 25.3836 34.738H17.9155Z" fill="#ECB22E"/>
</svg>
