<svg width="112" height="56" viewBox="0 0 112 56" fill="none" xmlns="http://www.w3.org/2000/svg">
<path d="M25.1436 26.4172V36.8453C25.1436 37.0143 25.0765 37.1764 24.957 37.296C24.8375 37.4155 24.6754 37.4827 24.5064 37.4827H21.2155C21.0465 37.4826 20.8845 37.4154 20.765 37.2959C20.6456 37.1764 20.5784 37.0143 20.5783 36.8453V19.8835C20.5783 19.7144 20.6455 19.5523 20.7649 19.4328C20.8844 19.3133 21.0465 19.2461 21.2155 19.2461H24.2609C24.4299 19.2461 24.592 19.3133 24.7114 19.4328C24.8309 19.5523 24.8981 19.7144 24.8981 19.8835V22.2721C24.8981 22.2721 25.9867 18.8648 29.2175 18.8648C29.2175 18.8648 32.4132 18.4784 33.7126 22.0262C33.7126 22.0262 34.8012 18.8648 38.1023 18.8648C38.1023 18.8648 43.0115 18.5728 43.0115 23.6539L43.0488 26.4523V36.8804C43.0488 37.0495 42.9817 37.2116 42.8622 37.3311C42.7427 37.4506 42.5806 37.5178 42.4116 37.5178H39.1204C38.9515 37.5177 38.7894 37.4505 38.67 37.331C38.5505 37.2115 38.4833 37.0494 38.4832 36.8804L38.4532 25.5039C38.5467 22.9278 36.4633 23.1152 36.4633 23.1152C33.8413 23.1621 34.0935 26.4523 34.0935 26.4523V36.8804C34.0935 37.0495 34.0264 37.2116 33.9069 37.3311C33.7874 37.4506 33.6254 37.5178 33.4564 37.5178H30.1654C29.9965 37.5177 29.8344 37.4505 29.715 37.331C29.5955 37.2115 29.5283 37.0494 29.5283 36.8804V25.7613C29.5283 25.7613 29.7207 23.0916 27.3793 23.0916C27.3796 23.0916 25.0619 22.7872 25.1436 26.4172ZM109.975 26.386V36.8138C109.975 36.9828 109.908 37.1449 109.788 37.2644C109.669 37.3839 109.507 37.4511 109.338 37.4512L105.915 37.5175C105.746 37.5174 105.584 37.4502 105.465 37.3307C105.345 37.2112 105.278 37.0492 105.278 36.8801V25.7613C105.278 25.7613 105.471 23.0916 103.129 23.0916C103.129 23.0916 100.893 22.9814 100.893 27.1672V36.845C100.893 37.014 100.826 37.1761 100.707 37.2956C100.587 37.4151 100.425 37.4823 100.256 37.4824H96.965C96.7961 37.4823 96.634 37.4151 96.5146 37.2956C96.3951 37.1761 96.3279 37.014 96.3279 36.845V19.8835C96.3279 19.7145 96.3951 19.5524 96.5146 19.4329C96.634 19.3134 96.7961 19.2462 96.965 19.2461H100.01C100.179 19.2461 100.341 19.3133 100.461 19.4328C100.58 19.5523 100.648 19.7144 100.648 19.8835V22.2721C100.648 22.2721 101.736 18.8648 104.967 18.8648C104.967 18.8648 108.428 18.3395 109.594 21.9602C109.594 21.9599 109.975 22.7069 109.975 26.386ZM86.2132 18.7945C82.0047 18.7945 78.5926 22.3424 78.5926 28.3141C78.5926 33.5717 81.2264 37.8336 86.2132 37.8336C90.9189 37.8336 93.8337 33.5717 93.8337 28.3141C93.8337 22.4478 90.4219 18.7945 86.2132 18.7945ZM88.8694 28.5248C88.8694 30.773 88.5885 31.9673 88.5885 31.9673C88.1887 34.3439 86.464 34.3473 86.2098 34.3347C85.9353 34.3456 84.196 34.3209 83.8361 31.9673C83.8361 31.9673 83.5552 30.773 83.5552 28.5248V28.1502C83.5552 25.9021 83.8361 24.7077 83.8361 24.7077C84.196 22.3542 85.9356 22.3295 86.2098 22.3401C86.464 22.3275 88.1887 22.3306 88.5885 24.7077C88.5885 24.7077 88.8694 25.9021 88.8694 28.1502V28.5248ZM76.6825 22.2485V19.8149C76.6824 19.6459 76.6153 19.4838 76.4958 19.3643C76.3763 19.2448 76.2143 19.1776 76.0453 19.1775H65.1673C64.9983 19.1775 64.8362 19.2447 64.7167 19.3642C64.5973 19.4837 64.5301 19.6459 64.5301 19.8149V22.2297C64.5302 22.3987 64.5974 22.5608 64.7168 22.6803C64.8363 22.7998 64.9983 22.867 65.1673 22.8671H70.8415L64.1253 32.6128C64.1253 32.6128 63.8606 33.008 63.8694 33.4444V36.4089C63.8694 36.4089 63.8255 37.4253 64.9779 36.8355C64.9779 36.8355 67.0249 35.5984 70.4571 35.5984C70.4571 35.5984 73.8467 35.5563 76.1066 36.942C76.1066 36.942 77.0446 37.3686 77.0446 36.4305V33.8502C77.0446 33.8502 77.1298 33.1673 76.2344 32.741C76.2344 32.741 73.6335 31.3123 70.2225 31.5467L76.6825 22.2485ZM18.0383 34.4493L17.0081 32.8807C16.6803 32.295 16.7039 31.6391 16.7039 31.6391V24.4031C16.8443 18.1504 9.91437 18.6891 9.91437 18.6891C3.7539 18.6891 2.84393 23.4847 2.84393 23.4847C2.58715 24.4489 3.33389 24.4722 3.33389 24.4722L6.34417 24.7777C6.34417 24.7777 6.85745 24.8952 7.04428 24.284C7.04428 24.284 7.44068 22.1918 9.65759 22.1918C12.0697 22.1918 12.0447 24.2626 12.0447 24.2626V25.9962C7.22942 26.1572 4.9979 27.4943 4.9979 27.4943C2.0247 29.1805 2.21181 32.5294 2.21181 32.5294C2.21181 37.9857 7.40922 37.7513 7.40922 37.7513C10.7336 37.7513 12.7002 35.316 12.7002 35.316C13.2854 36.3468 14.3625 37.3298 14.3625 37.3298C14.9014 37.9143 15.463 37.4236 15.463 37.4236L17.8979 35.3396C18.4361 34.9411 18.0383 34.4493 18.0383 34.4493ZM9.03165 34.3819C7.46793 34.3819 6.88667 32.8275 7.14626 31.2999C7.40613 29.7723 8.75577 28.5718 12.045 28.6069V29.5357C12.1616 33.593 10.3333 34.3819 9.03165 34.3819ZM61.7713 34.4493L60.7414 32.8807C60.4135 32.295 60.4368 31.6391 60.4368 31.6391V24.4031C60.5773 18.1504 53.6473 18.6891 53.6473 18.6891C47.4868 18.6891 46.5769 23.4847 46.5769 23.4847C46.3201 24.4489 47.0668 24.4722 47.0668 24.4722L50.0771 24.7777C50.0771 24.7777 50.5904 24.8952 50.7772 24.284C50.7772 24.284 51.1736 22.1918 53.3905 22.1918C55.8027 22.1918 55.7777 24.2626 55.7777 24.2626V25.9962C50.9626 26.1572 48.7309 27.4943 48.7309 27.4943C45.7577 29.1805 45.9448 32.5294 45.9448 32.5294C45.9448 37.9857 51.1422 37.7513 51.1422 37.7513C54.4665 37.7513 56.4331 35.316 56.4331 35.316C57.0186 36.3468 58.0952 37.3298 58.0952 37.3298C58.634 37.9143 59.1959 37.4236 59.1959 37.4236L61.6305 35.3396C62.1691 34.9411 61.7713 34.4493 61.7713 34.4493ZM52.7646 34.3819C51.2009 34.3819 50.6196 32.8275 50.8792 31.2999C51.1391 29.7723 52.4887 28.5718 55.7777 28.6069V29.5357C55.8946 33.593 54.0665 34.3819 52.7646 34.3819Z" fill="#B7BAC7"/>
<path d="M70.0578 48.1458C70.0578 48.1458 69.7824 48.6249 70.1207 48.732C70.1207 48.732 70.5028 48.8812 70.9792 48.4389C70.9792 48.4389 74.4542 45.4025 74.5379 39.8742C74.5379 39.8742 74.5635 39.1837 74.2865 38.9949C74.2865 38.9949 73.1978 38.0316 69.2832 38.3247C69.2832 38.3247 65.8709 38.5551 64.008 40.2095C64.008 40.2095 63.8405 40.3559 63.8405 40.5442C63.8405 40.5442 63.8004 40.9508 64.8244 40.7746C64.8244 40.7746 68.2364 40.2927 70.2671 40.5442C70.2671 40.5442 71.3141 40.6698 71.6071 41.0261C71.6071 41.0261 72.0887 41.424 71.8372 42.7429C71.8372 42.7434 71.1461 46.0938 70.0578 48.1458Z" fill="#B7BAC7"/>
<path d="M69.3698 42.8437C69.3698 42.8437 69.8795 43.5041 69.0571 44.0737C69.0571 44.0737 60.273 51.102 45.5236 51.102C45.5236 51.102 30.341 51.8512 17.6635 40.3294C17.6635 40.3294 17.2191 39.939 17.4949 39.5762C17.4949 39.5762 17.7416 39.2424 18.3802 39.6055C18.3802 39.6055 30.3058 47.0387 45.9683 47.0387C45.9683 47.0387 56.8548 47.4603 68.0221 42.6829C68.0221 42.6829 68.9119 42.2218 69.3698 42.8437Z" fill="#B7BAC7"/>
</svg>
