<svg width="113" height="56" viewBox="0 0 113 56" fill="none" xmlns="http://www.w3.org/2000/svg">
<path d="M14.2933 9.72473H15.2893C18.747 9.7999 22.1484 11.1905 24.5913 13.6523C23.6893 14.5731 22.7685 15.4563 21.8853 16.3771C20.5135 15.1368 18.8598 14.1784 17.0558 13.8402C14.3873 13.2764 11.5121 13.7838 9.2759 15.306C6.83295 16.9033 5.17925 19.6093 4.82221 22.5033C4.42758 25.3597 5.23563 28.3664 7.09603 30.5838C8.88127 32.7449 11.6061 34.0979 14.4249 34.1919C17.0558 34.3422 19.7994 33.5342 21.7162 31.6926C23.2195 30.3959 23.9148 28.4228 24.1403 26.506C21.0209 26.506 17.9014 26.5248 14.7819 26.506V22.6348H27.9175C28.594 26.7879 27.6168 31.4671 24.4598 34.4362C22.3551 36.5409 19.4423 37.7812 16.4732 38.0255C13.598 38.3074 10.6289 37.7624 8.07321 36.3718C5.01013 34.7369 2.56717 31.9745 1.36449 28.7234C0.236971 25.7355 0.218179 22.353 1.27053 19.3462C2.22892 16.6026 4.07053 14.1784 6.43831 12.4872C8.71214 10.8147 11.4746 9.89386 14.2933 9.72473Z" fill="#B7BAC7"/>
<path d="M89.649 10.7018H93.6705V37.5367C92.3363 37.5367 90.9833 37.5555 89.649 37.5179C89.6678 28.5917 89.649 19.6467 89.649 10.7018V10.7018Z" fill="#B7BAC7"/>
<path d="M36.8625 20.004C39.343 19.5342 42.0303 20.0604 44.0786 21.5449C45.939 22.8604 47.2357 24.9275 47.6303 27.1825C48.1377 29.7946 47.4988 32.651 45.8075 34.7181C43.9847 37.0295 40.9967 38.2698 38.084 38.0818C35.4155 37.9315 32.8222 36.5973 31.2437 34.4174C29.4585 32.012 29.0262 28.7047 30.0034 25.8859C30.9806 22.8604 33.743 20.5489 36.8625 20.004V20.004ZM37.4263 23.5745C36.4115 23.8375 35.4719 24.4201 34.7954 25.2469C32.9726 27.4268 33.0853 30.9785 35.0961 33.008C36.2424 34.1731 37.9712 34.7181 39.5685 34.3986C41.0531 34.1355 42.3498 33.1396 43.0638 31.8241C44.3041 29.5879 43.9471 26.506 42.0491 24.7583C40.8276 23.6308 39.0424 23.161 37.4263 23.5745Z" fill="#B7BAC7"/>
<path d="M56.7819 20.004C59.6194 19.4591 62.7201 20.2483 64.8436 22.2403C68.3013 25.3409 68.6772 31.1476 65.7268 34.7181C63.9416 36.9731 61.0476 38.2134 58.1913 38.0818C55.4664 38.0067 52.7792 36.6537 51.1631 34.4174C49.3403 31.9557 48.9456 28.5731 49.9792 25.698C51.0127 22.7664 53.7188 20.5302 56.7819 20.004V20.004ZM57.3456 23.5745C56.3309 23.8376 55.3913 24.4201 54.7148 25.2282C52.9107 27.3705 52.9859 30.8657 54.9215 32.9141C56.0678 34.1355 57.853 34.7369 59.5067 34.3986C60.9725 34.1168 62.2879 33.1396 63.002 31.8241C64.2235 29.5691 63.8664 26.4872 61.9496 24.7396C60.7282 23.6121 58.9429 23.1611 57.3456 23.5745Z" fill="#B7BAC7"/>
<path d="M73.6757 21.0937C75.8368 19.7407 78.712 19.3648 81.0422 20.5299C81.7751 20.8494 82.3764 21.3944 82.959 21.9393C82.9777 21.4319 82.959 20.9058 82.9777 20.3796C84.2368 20.3984 85.4959 20.3796 86.7737 20.3984V36.9729C86.7549 39.4722 86.116 42.1218 84.312 43.9447C82.3388 45.9554 79.3133 46.5755 76.5885 46.1621C73.6757 45.7299 71.1388 43.6064 70.0113 40.9192C71.1388 40.3742 72.3227 39.942 73.4878 39.4346C74.1455 40.9755 75.4798 42.291 77.1522 42.5916C78.8247 42.8923 80.7603 42.4789 81.8502 41.0883C83.0153 39.6601 83.0153 37.7057 82.959 35.9581C82.0945 36.8037 81.0985 37.5554 79.8959 37.8373C77.2838 38.5702 74.4086 37.6682 72.3979 35.9017C70.3683 34.1353 69.1657 31.4104 69.2784 28.7044C69.3348 25.6413 71.0636 22.691 73.6757 21.0937V21.0937ZM77.5657 23.499C76.4194 23.687 75.3482 24.3259 74.6153 25.2091C72.8489 27.3138 72.8489 30.6776 74.6341 32.7447C75.6489 33.9661 77.2838 34.6427 78.8623 34.4735C80.3469 34.3232 81.7187 33.3836 82.4516 32.087C83.6918 29.8883 83.4851 26.9004 81.8126 24.9836C80.7791 23.7997 79.1254 23.2172 77.5657 23.499V23.499Z" fill="#B7BAC7"/>
<path d="M98.5 22.0522C100.755 19.9475 104.232 19.2334 107.126 20.3421C109.869 21.3757 111.617 23.9878 112.5 26.675C108.422 28.3663 104.363 30.0388 100.285 31.7301C100.849 32.8012 101.713 33.7784 102.879 34.173C104.513 34.7556 106.468 34.5489 107.84 33.4589C108.385 33.0455 108.817 32.5005 109.23 31.9744C110.264 32.6697 111.297 33.3462 112.331 34.0415C110.865 36.2401 108.403 37.7811 105.754 38.0254C102.822 38.3824 99.7027 37.2549 97.8047 34.9623C94.6852 31.3542 94.9859 25.3032 98.5 22.0522V22.0522ZM100.511 25.5287C99.8718 26.4495 99.6087 27.577 99.6275 28.6858C102.352 27.5582 105.077 26.4307 107.802 25.2844C107.351 24.2321 106.261 23.5931 105.152 23.424C103.367 23.1046 101.507 24.0629 100.511 25.5287V25.5287Z" fill="#B7BAC7"/>
</svg>
