<svg width="113" height="56" viewBox="0 0 113 56" fill="none" xmlns="http://www.w3.org/2000/svg">
<path d="M18.3594 15.4984C18.3594 15.4984 29.5304 15.4982 32.3154 16.2426C33.8553 16.6574 35.0665 17.8684 35.4756 19.4027C36.2199 22.1872 36.2197 28.0004 36.2197 28.0004C36.2197 28.0581 36.2162 33.8265 35.4756 36.597C35.0608 38.1369 33.8497 39.3471 32.3154 39.7562C29.5308 40.5006 18.3594 40.5013 18.3594 40.5013C18.2797 40.5013 7.18486 40.4979 4.4043 39.7562C2.8644 39.3414 1.65323 38.1314 1.24414 36.597C0.49976 33.8126 0.5 27.9994 0.5 27.9994C0.500017 27.9445 0.503313 22.174 1.24414 19.4027C1.65896 17.8628 2.87013 16.6516 4.4043 16.2426C7.18524 15.5009 18.2797 15.4984 18.3594 15.4984ZM14.791 33.3588L24.0703 28.0004L14.791 22.642V33.3588Z" fill="#B7BAC7"/>
<path fill-rule="evenodd" clip-rule="evenodd" d="M52.3463 38.2448C51.6416 37.7676 51.1359 37.0289 50.8404 36.0232C50.5449 35.0173 50.3914 33.682 50.3914 32.0113V29.7384C50.3914 28.0508 50.5619 26.6984 50.9029 25.6754C51.2438 24.6526 51.778 23.9083 52.4996 23.4422C53.2213 22.9763 54.1703 22.7377 55.3465 22.7377C56.5058 22.7377 57.432 22.9763 58.1308 23.4537C58.8298 23.9309 59.3412 24.6754 59.6651 25.6868C59.9891 26.6984 60.1482 28.0508 60.1482 29.7326V32.0057C60.1482 33.6763 59.9891 35.0173 59.6764 36.0288C59.364 37.0402 58.8527 37.7847 58.1423 38.2506C57.4376 38.7165 56.4773 38.9554 55.2669 38.9554C54.0282 38.9608 53.0508 38.7222 52.3463 38.2448ZM56.3068 35.7902C56.5 35.2787 56.6024 34.4434 56.6024 33.2899V28.4088C56.6024 27.2835 56.5058 26.4653 56.3068 25.9426C56.1137 25.4254 55.767 25.1641 55.2726 25.1641C54.7954 25.1641 54.46 25.4254 54.2612 25.9426C54.068 26.4596 53.9658 27.2835 53.9658 28.4088V33.2899C53.9658 34.4491 54.0566 35.2844 54.2442 35.7902C54.4317 36.3016 54.7726 36.5572 55.267 36.5572C55.767 36.5572 56.108 36.3016 56.3068 35.7902ZM106.596 32.0511V32.8411C106.596 33.8468 106.624 34.5968 106.687 35.1025C106.744 35.6026 106.869 35.9719 107.056 36.1994C107.244 36.4266 107.534 36.5459 107.926 36.5459C108.454 36.5459 108.818 36.3414 109.011 35.9321C109.204 35.5231 109.312 34.8411 109.329 33.8865L112.369 34.0628C112.386 34.199 112.392 34.3865 112.392 34.6251C112.392 36.0743 111.994 37.1538 111.204 37.8698C110.415 38.5858 109.295 38.9438 107.846 38.9438C106.107 38.9438 104.891 38.3983 104.192 37.3073C103.493 36.2163 103.147 34.5343 103.147 32.25V29.5168C103.147 27.1643 103.51 25.4538 104.232 24.3686C104.954 23.2889 106.192 22.749 107.949 22.749C109.159 22.749 110.085 22.9708 110.733 23.4139C111.381 23.8571 111.835 24.5446 112.102 25.4823C112.364 26.4198 112.5 27.7155 112.5 29.3633V32.0455H106.596V32.0511ZM107.045 25.4595C106.869 25.6812 106.749 26.0448 106.687 26.5449C106.624 27.0449 106.596 27.8121 106.596 28.8292V29.9544H109.176V28.8292C109.176 27.8233 109.142 27.062 109.073 26.5449C109.005 26.0278 108.88 25.6585 108.704 25.4482C108.528 25.2379 108.25 25.13 107.875 25.13C107.499 25.1243 107.221 25.2379 107.045 25.4595ZM43.7658 31.7556L39.7542 17.2712H43.2543L44.658 23.8345C45.016 25.4539 45.2773 26.8291 45.4478 27.9712H45.55C45.6694 27.1528 45.9308 25.7834 46.34 23.8571L47.7946 17.2655H51.2949L47.2378 31.7556V38.7052H43.7658V31.7556ZM71.53 23.0446V38.6995H68.774L68.4671 36.7845H68.3932C67.6432 38.2335 66.5181 38.9552 65.0236 38.9552C63.9838 38.9552 63.2166 38.6143 62.7223 37.9324C62.2279 37.2505 61.9836 36.1879 61.9836 34.7389V23.0446H65.5067V34.54C65.5067 35.2389 65.5805 35.7391 65.734 36.0345C65.8874 36.3299 66.1431 36.4834 66.5011 36.4834C66.8079 36.4834 67.1034 36.3923 67.3818 36.205C67.6602 36.0175 67.8705 35.7787 68.0069 35.489V23.0445L71.53 23.0446ZM89.6114 23.0446V38.6995H86.8553L86.5484 36.7845H86.4746C85.7245 38.2335 84.5995 38.9552 83.1049 38.9552C82.0652 38.9552 81.298 38.6143 80.8037 37.9324C80.3093 37.2505 80.0649 36.1879 80.0649 34.7389V23.0446H83.588V34.54C83.588 35.2389 83.6619 35.7391 83.8153 36.0345C83.9686 36.3299 84.2244 36.4834 84.5824 36.4834C84.8893 36.4834 85.1848 36.3923 85.4632 36.205C85.7416 36.0175 85.9518 35.7787 86.0883 35.489V23.0445L89.6114 23.0446Z" fill="#B7BAC7"/>
<path fill-rule="evenodd" clip-rule="evenodd" d="M81.1104 20.107H77.6101V38.6997H74.1608V20.107H70.6605V17.2716H81.1047V20.107H81.1104ZM101.277 25.5506C101.061 24.5619 100.72 23.8459 100.243 23.4028C99.7658 22.9595 99.1123 22.7379 98.2768 22.7379C97.6293 22.7379 97.0268 22.9197 96.4643 23.2891C95.9017 23.6527 95.4699 24.1358 95.163 24.7324H95.1346V16.4816H91.7365V38.7054H94.6458L95.0038 37.2223H95.0778C95.3505 37.7508 95.7596 38.1656 96.3051 38.4724C96.8506 38.7792 97.4531 38.9327 98.1178 38.9327C99.3112 38.9327 100.186 38.3815 100.749 37.2847C101.311 36.1881 101.59 34.472 101.59 32.1366V29.659C101.596 27.9088 101.487 26.5394 101.277 25.5507V25.5506ZM98.0439 31.9376C98.0439 33.0799 97.9984 33.9719 97.9019 34.6198C97.8109 35.2676 97.6519 35.7278 97.4303 36.0006C97.2086 36.2733 96.9131 36.4097 96.5381 36.4097C96.2483 36.4097 95.9813 36.3416 95.7312 36.2052C95.4869 36.0688 95.2824 35.8642 95.1289 35.5914V26.6986C95.2483 26.2723 95.4528 25.9258 95.7427 25.6531C96.0324 25.3803 96.3449 25.2438 96.6858 25.2438C97.0438 25.2438 97.3222 25.3858 97.5155 25.6642C97.7087 25.9428 97.8451 26.42 97.9246 27.0792C97.9986 27.7441 98.0382 28.6873 98.0382 29.9146V31.9376H98.0439Z" fill="#B7BAC7"/>
</svg>
