<svg width="72" height="28" viewBox="0 0 72 28" fill="none" xmlns="http://www.w3.org/2000/svg">
<path d="M129.397 12.6905V10.4254H126.584V6.90392L126.49 6.93307L123.848 7.74145L123.796 7.75727V10.4255H119.625V8.93907C119.625 8.24694 119.78 7.71728 120.085 7.36405C120.388 7.01506 120.821 6.83763 121.374 6.83763C121.771 6.83763 122.182 6.9312 122.596 7.11573L122.7 7.16208V4.77657L122.651 4.75862C122.265 4.61982 121.74 4.54993 121.089 4.54993C120.268 4.54993 119.523 4.72847 118.873 5.08233C118.222 5.43668 117.711 5.94254 117.352 6.5857C116.995 7.22812 116.814 7.97008 116.814 8.79117V10.4254H114.855V12.6905H116.814V22.2332H119.625V12.6905H123.796V18.7547C123.796 21.2523 124.974 22.5179 127.297 22.5179C127.679 22.5179 128.08 22.4732 128.491 22.3856C128.908 22.2956 129.193 22.2058 129.36 22.1098L129.397 22.0879V19.8018L129.283 19.8775C129.13 19.9791 128.94 20.0622 128.718 20.124C128.494 20.187 128.307 20.2185 128.162 20.2185C127.618 20.2185 127.215 20.0718 126.965 19.7824C126.713 19.4903 126.584 18.9796 126.584 18.2652V12.6905H129.397ZM108.576 20.2189C107.555 20.2189 106.751 19.8805 106.184 19.2139C105.613 18.5439 105.324 17.5888 105.324 16.3752C105.324 15.1231 105.613 14.1432 106.184 13.4614C106.751 12.7841 107.548 12.4403 108.553 12.4403C109.528 12.4403 110.304 12.7686 110.86 13.4167C111.419 14.0681 111.702 15.0402 111.702 16.3068C111.702 17.589 111.436 18.5739 110.91 19.2328C110.388 19.8867 109.603 20.2189 108.576 20.2189V20.2189ZM108.701 10.1409C106.754 10.1409 105.207 10.7114 104.105 11.8367C103.003 12.962 102.444 14.5193 102.444 16.4658C102.444 18.3145 102.99 19.8016 104.065 20.8849C105.141 21.9687 106.605 22.5177 108.416 22.5177C110.304 22.5177 111.819 21.9392 112.921 20.7984C114.024 19.6588 114.582 18.1162 114.582 16.2152C114.582 14.3376 114.058 12.8394 113.024 11.7633C111.99 10.6866 110.535 10.1409 108.701 10.1409V10.1409ZM97.9108 10.1409C96.5863 10.1409 95.4907 10.4797 94.6538 11.1477C93.8118 11.8196 93.3847 12.7009 93.3847 13.7673C93.3847 14.3216 93.4769 14.814 93.6583 15.2317C93.8409 15.6507 94.1233 16.0196 94.4986 16.3292C94.871 16.6364 95.4459 16.9581 96.2077 17.2854C96.8481 17.5489 97.3257 17.7718 97.6291 17.9475C97.9256 18.1197 98.136 18.2927 98.2549 18.4613C98.3704 18.6263 98.429 18.852 98.429 19.1306C98.429 19.9239 97.8349 20.3099 96.6125 20.3099C96.1591 20.3099 95.6419 20.2152 95.0753 20.0286C94.5128 19.8448 93.9819 19.5756 93.5012 19.2304L93.3845 19.1467V21.8538L93.4273 21.8737C93.8252 22.0574 94.3268 22.2123 94.918 22.3341C95.5081 22.4561 96.0442 22.5182 96.5099 22.5182C97.9471 22.5182 99.1045 22.1778 99.949 21.5058C100.799 20.8293 101.23 19.9272 101.23 18.8239C101.23 18.028 100.998 17.3454 100.541 16.795C100.087 16.249 99.299 15.7477 98.2002 15.3047C97.3248 14.9533 96.764 14.6616 96.5326 14.4377C96.3096 14.2214 96.1963 13.9156 96.1963 13.5282C96.1963 13.1848 96.3361 12.9097 96.6231 12.6869C96.9123 12.463 97.3148 12.3491 97.8197 12.3491C98.2882 12.3491 98.7675 12.4231 99.2442 12.5682C99.7205 12.7132 100.139 12.9074 100.488 13.1451L100.603 13.2235V10.6556L100.559 10.6367C100.237 10.4985 99.8118 10.3803 99.2958 10.2843C98.7821 10.189 98.3161 10.1409 97.9108 10.1409V10.1409ZM86.0547 20.2189C85.0344 20.2189 84.2295 19.8805 83.6626 19.2139C83.0919 18.5439 82.8033 17.589 82.8033 16.3752C82.8033 15.1231 83.0923 14.1432 83.6632 13.4614C84.2301 12.7841 85.0269 12.4403 86.0321 12.4403C87.0067 12.4403 87.7828 12.7686 88.3389 13.4167C88.8977 14.0681 89.1811 15.0402 89.1811 16.3068C89.1811 17.589 88.9144 18.5739 88.3886 19.2328C87.8664 19.8867 87.0816 20.2189 86.0547 20.2189V20.2189ZM86.18 10.1409C84.2325 10.1409 82.6858 10.7114 81.5838 11.8367C80.4819 12.962 79.9228 14.5193 79.9228 16.4658C79.9228 18.3153 80.4686 19.8016 81.5443 20.8849C82.6201 21.9687 84.0839 22.5177 85.8952 22.5177C87.7823 22.5177 89.2984 21.9392 90.4005 20.7984C91.5023 19.6588 92.0609 18.1162 92.0609 16.2152C92.0609 14.3376 91.5368 12.8394 90.5028 11.7633C89.4683 10.6866 88.0138 10.1409 86.18 10.1409V10.1409ZM75.6547 12.4702V10.4254H72.8772V22.233H75.6547V16.1929C75.6547 15.1659 75.8876 14.3221 76.3471 13.6848C76.8007 13.0551 77.4053 12.736 78.1434 12.736C78.3935 12.736 78.6744 12.7772 78.9785 12.8589C79.2795 12.94 79.4976 13.0281 79.6262 13.1208L79.7429 13.2054V10.4052L79.6979 10.3859C79.4393 10.276 79.0733 10.2205 78.6103 10.2205C77.9124 10.2205 77.2878 10.4448 76.7528 10.8864C76.2832 11.2745 75.9438 11.8066 75.6842 12.4702H75.6547ZM67.9033 10.1409C66.629 10.1409 65.4925 10.4142 64.5257 10.9528C63.557 11.4927 62.8078 12.2634 62.2981 13.2435C61.7906 14.2212 61.533 15.3632 61.533 16.6369C61.533 17.7525 61.7828 18.7763 62.2765 19.6786C62.7706 20.5824 63.4698 21.2895 64.3549 21.7799C65.2388 22.2697 66.2603 22.518 67.3914 22.518C68.7114 22.518 69.8383 22.2541 70.7419 21.7337L70.7784 21.7128V19.1681L70.6617 19.2534C70.2524 19.5515 69.795 19.7895 69.3028 19.9609C68.8119 20.1323 68.3644 20.2189 67.9719 20.2189C66.8821 20.2189 66.0072 19.8778 65.3721 19.2055C64.7357 18.5323 64.413 17.587 64.413 16.3975C64.413 15.2005 64.7495 14.2309 65.4127 13.5155C66.0739 12.8022 66.9505 12.4403 68.0178 12.4403C68.9307 12.4403 69.8203 12.7495 70.6619 13.36L70.7784 13.4446V10.7634L70.7408 10.7422C70.4241 10.5649 69.9921 10.4185 69.4558 10.3075C68.9218 10.1967 68.3995 10.1409 67.9033 10.1409V10.1409ZM59.62 10.4255H56.8426V22.233H59.62V10.4255V10.4255ZM58.2597 5.39543C57.8026 5.39543 57.4039 5.55106 57.0763 5.85943C56.7474 6.16868 56.5805 6.55804 56.5805 7.01755C56.5805 7.46983 56.7454 7.85209 57.0712 8.15312C57.3949 8.45327 57.7949 8.6054 58.2598 8.6054C58.7247 8.6054 59.1261 8.45327 59.4537 8.15361C59.7834 7.85209 59.9506 7.46996 59.9506 7.01755C59.9506 6.57411 59.7879 6.18874 59.4673 5.87189C59.147 5.55566 58.7405 5.39543 58.2597 5.39543ZM51.3297 9.55432V22.233H54.1643V5.75689H50.2411L45.2546 17.9948L40.4154 5.75689H36.3326V22.2328H38.9963V9.55307H39.0878L44.1978 22.233H46.208L51.2383 9.55432H51.3297V9.55432Z" fill="#B7BAC7"/>
<path d="M13.666 13.3174H0.599976V0.251343H13.666V13.3174Z" fill="#B7BAC7"/>
<path d="M28.0905 13.3174H15.0247V0.251343H28.0905V13.3174Z" fill="#B7BAC7"/>
<path d="M13.6657 27.7488H0.599976V14.6829H13.6657V27.7488Z" fill="#B7BAC7"/>
<path d="M28.0905 27.7488H15.0247V14.6829H28.0905V27.7488Z" fill="#B7BAC7"/>
</svg>
