<svg width="69" height="69" viewBox="0 0 69 69" fill="none" xmlns="http://www.w3.org/2000/svg">
<rect x="1" y="1" width="67" height="67" rx="14" stroke="#302C2C" stroke-width="2"/>
<path d="M25.75 26.324V22.859C25.7502 22.2996 25.9726 21.7632 26.3682 21.3677C26.7638 20.9722 27.3003 20.75 27.8597 20.75H46.1403C46.6998 20.75 47.2364 20.9723 47.6321 21.3679C48.0277 21.7636 48.25 22.3002 48.25 22.8598V41.141C48.2498 41.7003 48.0275 42.2366 47.6321 42.6321C47.2366 43.0275 46.7003 43.2498 46.141 43.25H42.637" stroke="white" stroke-width="3" stroke-linecap="round" stroke-linejoin="round"/>
<path d="M40.141 26.75H21.8582C21.299 26.7504 20.7627 26.9728 20.3674 27.3685C19.9721 27.7641 19.75 28.3005 19.75 28.8597V47.1403C19.75 47.6998 19.9723 48.2364 20.3679 48.6321C20.7636 49.0277 21.3002 49.25 21.8598 49.25H40.141C40.7003 49.2498 41.2366 49.0275 41.6321 48.6321C42.0275 48.2366 42.2498 47.7003 42.25 47.141V28.8582C42.2496 28.2991 42.0273 27.763 41.6318 27.3677C41.2364 26.9724 40.7002 26.7502 40.141 26.75Z" stroke="white" stroke-width="3" stroke-linejoin="round"/>
</svg>
