<svg width="684" height="768" viewBox="0 0 684 768" fill="none" xmlns="http://www.w3.org/2000/svg">
<rect width="684" height="768" rx="30" fill="black"/>
<path d="M37.776 107.248C37.776 103.984 38.528 101.056 40.032 98.464C41.568 95.872 43.632 93.856 46.224 92.416C48.848 90.944 51.712 90.208 54.816 90.208C58.368 90.208 61.52 91.088 64.272 92.848C67.056 94.576 69.072 97.04 70.32 100.24H63.744C62.88 98.48 61.68 97.168 60.144 96.304C58.608 95.44 56.832 95.008 54.816 95.008C52.608 95.008 50.64 95.504 48.912 96.496C47.184 97.488 45.824 98.912 44.832 100.768C43.872 102.624 43.392 104.784 43.392 107.248C43.392 109.712 43.872 111.872 44.832 113.728C45.824 115.584 47.184 117.024 48.912 118.048C50.64 119.04 52.608 119.536 54.816 119.536C56.832 119.536 58.608 119.104 60.144 118.24C61.68 117.376 62.88 116.064 63.744 114.304H70.32C69.072 117.504 67.056 119.968 64.272 121.696C61.52 123.424 58.368 124.288 54.816 124.288C51.68 124.288 48.816 123.568 46.224 122.128C43.632 120.656 41.568 118.624 40.032 116.032C38.528 113.44 37.776 110.512 37.776 107.248ZM82.197 101.392C82.997 100.048 84.053 99.008 85.365 98.272C86.709 97.504 88.293 97.12 90.117 97.12V102.784H88.725C86.581 102.784 84.949 103.328 83.829 104.416C82.741 105.504 82.197 107.392 82.197 110.08V124H76.725V97.552H82.197V101.392ZM119.387 110.128C119.387 111.12 119.323 112.016 119.195 112.816H98.9869C99.1469 114.928 99.9309 116.624 101.339 117.904C102.747 119.184 104.475 119.824 106.523 119.824C109.467 119.824 111.547 118.592 112.763 116.128H118.667C117.867 118.56 116.411 120.56 114.299 122.128C112.219 123.664 109.627 124.432 106.523 124.432C103.995 124.432 101.723 123.872 99.7069 122.752C97.7229 121.6 96.1549 120 95.0029 117.952C93.8829 115.872 93.3229 113.472 93.3229 110.752C93.3229 108.032 93.8669 105.648 94.9549 103.6C96.0749 101.52 97.6269 99.92 99.6109 98.8C101.627 97.68 103.931 97.12 106.523 97.12C109.019 97.12 111.243 97.664 113.195 98.752C115.147 99.84 116.667 101.376 117.755 103.36C118.843 105.312 119.387 107.568 119.387 110.128ZM113.675 108.4C113.643 106.384 112.923 104.768 111.515 103.552C110.107 102.336 108.363 101.728 106.283 101.728C104.395 101.728 102.779 102.336 101.435 103.552C100.091 104.736 99.2909 106.352 99.0349 108.4H113.675ZM111.323 90.448L100.715 95.68V91.648L111.323 85.792V90.448ZM149.012 110.128C149.012 111.12 148.948 112.016 148.82 112.816H128.612C128.772 114.928 129.556 116.624 130.964 117.904C132.372 119.184 134.1 119.824 136.148 119.824C139.092 119.824 141.172 118.592 142.388 116.128H148.292C147.492 118.56 146.036 120.56 143.924 122.128C141.844 123.664 139.252 124.432 136.148 124.432C133.62 124.432 131.348 123.872 129.332 122.752C127.348 121.6 125.78 120 124.628 117.952C123.508 115.872 122.948 113.472 122.948 110.752C122.948 108.032 123.492 105.648 124.58 103.6C125.7 101.52 127.252 99.92 129.236 98.8C131.252 97.68 133.556 97.12 136.148 97.12C138.644 97.12 140.868 97.664 142.82 98.752C144.772 99.84 146.292 101.376 147.38 103.36C148.468 105.312 149.012 107.568 149.012 110.128ZM143.3 108.4C143.268 106.384 142.548 104.768 141.14 103.552C139.732 102.336 137.988 101.728 135.908 101.728C134.02 101.728 132.404 102.336 131.06 103.552C129.716 104.736 128.916 106.352 128.66 108.4H143.3ZM159.245 119.536H171.245V124H152.909V119.536L164.957 102.016H152.909V97.552H171.245V102.016L159.245 119.536ZM199.683 119.104L207.171 97.552H212.979L202.899 124H196.371L186.339 97.552H192.195L199.683 119.104ZM228.588 124.432C226.092 124.432 223.836 123.872 221.82 122.752C219.804 121.6 218.22 120 217.068 117.952C215.916 115.872 215.34 113.472 215.34 110.752C215.34 108.064 215.932 105.68 217.116 103.6C218.3 101.52 219.916 99.92 221.964 98.8C224.012 97.68 226.3 97.12 228.828 97.12C231.356 97.12 233.644 97.68 235.692 98.8C237.74 99.92 239.356 101.52 240.54 103.6C241.724 105.68 242.316 108.064 242.316 110.752C242.316 113.44 241.708 115.824 240.492 117.904C239.276 119.984 237.612 121.6 235.5 122.752C233.42 123.872 231.116 124.432 228.588 124.432ZM228.588 119.68C229.996 119.68 231.308 119.344 232.524 118.672C233.772 118 234.78 116.992 235.548 115.648C236.316 114.304 236.7 112.672 236.7 110.752C236.7 108.832 236.332 107.216 235.596 105.904C234.86 104.56 233.884 103.552 232.668 102.88C231.452 102.208 230.14 101.872 228.732 101.872C227.324 101.872 226.012 102.208 224.796 102.88C223.612 103.552 222.668 104.56 221.964 105.904C221.26 107.216 220.908 108.832 220.908 110.752C220.908 113.6 221.628 115.808 223.068 117.376C224.54 118.912 226.38 119.68 228.588 119.68ZM257.325 124.432C255.245 124.432 253.373 124.064 251.709 123.328C250.077 122.56 248.781 121.536 247.821 120.256C246.861 118.944 246.349 117.488 246.285 115.888H251.949C252.045 117.008 252.573 117.952 253.533 118.72C254.525 119.456 255.757 119.824 257.229 119.824C258.765 119.824 259.949 119.536 260.781 118.96C261.645 118.352 262.077 117.584 262.077 116.656C262.077 115.664 261.597 114.928 260.637 114.448C259.709 113.968 258.221 113.44 256.173 112.864C254.189 112.32 252.573 111.792 251.325 111.28C250.077 110.768 248.989 109.984 248.061 108.928C247.165 107.872 246.717 106.48 246.717 104.752C246.717 103.344 247.133 102.064 247.965 100.912C248.797 99.728 249.981 98.8 251.517 98.128C253.085 97.456 254.877 97.12 256.893 97.12C259.901 97.12 262.317 97.888 264.141 99.424C265.997 100.928 266.989 102.992 267.117 105.616H261.645C261.549 104.432 261.069 103.488 260.205 102.784C259.341 102.08 258.173 101.728 256.701 101.728C255.261 101.728 254.157 102 253.389 102.544C252.621 103.088 252.237 103.808 252.237 104.704C252.237 105.408 252.493 106 253.005 106.48C253.517 106.96 254.141 107.344 254.877 107.632C255.613 107.888 256.701 108.224 258.141 108.64C260.061 109.152 261.629 109.68 262.845 110.224C264.093 110.736 265.165 111.504 266.061 112.528C266.957 113.552 267.421 114.912 267.453 116.608C267.453 118.112 267.037 119.456 266.205 120.64C265.373 121.824 264.189 122.752 262.653 123.424C261.149 124.096 259.373 124.432 257.325 124.432ZM291.306 101.44C292.234 100.224 293.498 99.2 295.098 98.368C296.698 97.536 298.506 97.12 300.522 97.12C302.826 97.12 304.922 97.696 306.81 98.848C308.73 99.968 310.234 101.552 311.322 103.6C312.41 105.648 312.954 108 312.954 110.656C312.954 113.312 312.41 115.696 311.322 117.808C310.234 119.888 308.73 121.52 306.81 122.704C304.922 123.856 302.826 124.432 300.522 124.432C298.506 124.432 296.714 124.032 295.146 123.232C293.578 122.4 292.298 121.376 291.306 120.16V136.576H285.834V97.552H291.306V101.44ZM307.386 110.656C307.386 108.832 307.002 107.264 306.234 105.952C305.498 104.608 304.506 103.6 303.258 102.928C302.042 102.224 300.73 101.872 299.322 101.872C297.946 101.872 296.634 102.224 295.386 102.928C294.17 103.632 293.178 104.656 292.41 106C291.674 107.344 291.306 108.928 291.306 110.752C291.306 112.576 291.674 114.176 292.41 115.552C293.178 116.896 294.17 117.92 295.386 118.624C296.634 119.328 297.946 119.68 299.322 119.68C300.73 119.68 302.042 119.328 303.258 118.624C304.506 117.888 305.498 116.832 306.234 115.456C307.002 114.08 307.386 112.48 307.386 110.656ZM342.318 97.552V124H336.846V120.88C335.982 121.968 334.846 122.832 333.438 123.472C332.062 124.08 330.59 124.384 329.022 124.384C326.942 124.384 325.07 123.952 323.406 123.088C321.774 122.224 320.478 120.944 319.518 119.248C318.59 117.552 318.126 115.504 318.126 113.104V97.552H323.55V112.288C323.55 114.656 324.142 116.48 325.326 117.76C326.51 119.008 328.126 119.632 330.174 119.632C332.222 119.632 333.838 119.008 335.022 117.76C336.238 116.48 336.846 114.656 336.846 112.288V97.552H342.318ZM355.01 101.488C355.938 100.208 357.202 99.168 358.802 98.368C360.434 97.536 362.242 97.12 364.226 97.12C366.562 97.12 368.674 97.68 370.562 98.8C372.45 99.92 373.938 101.52 375.026 103.6C376.114 105.648 376.658 108 376.658 110.656C376.658 113.312 376.114 115.696 375.026 117.808C373.938 119.888 372.434 121.52 370.514 122.704C368.626 123.856 366.53 124.432 364.226 124.432C362.178 124.432 360.354 124.032 358.754 123.232C357.186 122.432 355.938 121.408 355.01 120.16V124H349.538V88.48H355.01V101.488ZM371.09 110.656C371.09 108.832 370.706 107.264 369.938 105.952C369.202 104.608 368.21 103.6 366.962 102.928C365.746 102.224 364.434 101.872 363.026 101.872C361.65 101.872 360.338 102.224 359.09 102.928C357.874 103.632 356.882 104.656 356.114 106C355.378 107.344 355.01 108.928 355.01 110.752C355.01 112.576 355.378 114.176 356.114 115.552C356.882 116.896 357.874 117.92 359.09 118.624C360.338 119.328 361.65 119.68 363.026 119.68C364.434 119.68 365.746 119.328 366.962 118.624C368.21 117.888 369.202 116.832 369.938 115.456C370.706 114.08 371.09 112.48 371.09 110.656ZM387.541 88.48V124H382.069V88.48H387.541ZM397.509 94.048C396.517 94.048 395.685 93.712 395.013 93.04C394.341 92.368 394.005 91.536 394.005 90.544C394.005 89.552 394.341 88.72 395.013 88.048C395.685 87.376 396.517 87.04 397.509 87.04C398.469 87.04 399.285 87.376 399.957 88.048C400.629 88.72 400.965 89.552 400.965 90.544C400.965 91.536 400.629 92.368 399.957 93.04C399.285 93.712 398.469 94.048 397.509 94.048ZM400.197 97.552V124H394.725V97.552H400.197ZM405.557 110.752C405.557 108.032 406.101 105.648 407.189 103.6C408.309 101.52 409.845 99.92 411.797 98.8C413.749 97.68 415.989 97.12 418.517 97.12C421.717 97.12 424.357 97.888 426.437 99.424C428.549 100.928 429.973 103.088 430.709 105.904H424.805C424.325 104.592 423.557 103.568 422.501 102.832C421.445 102.096 420.117 101.728 418.517 101.728C416.277 101.728 414.485 102.528 413.141 104.128C411.829 105.696 411.173 107.904 411.173 110.752C411.173 113.6 411.829 115.824 413.141 117.424C414.485 119.024 416.277 119.824 418.517 119.824C421.685 119.824 423.781 118.432 424.805 115.648H430.709C429.941 118.336 428.501 120.48 426.389 122.08C424.277 123.648 421.653 124.432 418.517 124.432C415.989 124.432 413.749 123.872 411.797 122.752C409.845 121.6 408.309 120 407.189 117.952C406.101 115.872 405.557 113.472 405.557 110.752ZM438.947 94.048C437.955 94.048 437.123 93.712 436.451 93.04C435.779 92.368 435.443 91.536 435.443 90.544C435.443 89.552 435.779 88.72 436.451 88.048C437.123 87.376 437.955 87.04 438.947 87.04C439.907 87.04 440.723 87.376 441.395 88.048C442.067 88.72 442.403 89.552 442.403 90.544C442.403 91.536 442.067 92.368 441.395 93.04C440.723 93.712 439.907 94.048 438.947 94.048ZM441.635 97.552V124H436.163V97.552H441.635ZM455.203 102.016V116.656C455.203 117.648 455.427 118.368 455.875 118.816C456.355 119.232 457.155 119.44 458.275 119.44H461.635V124H457.315C454.851 124 452.963 123.424 451.651 122.272C450.339 121.12 449.683 119.248 449.683 116.656V102.016H446.563V97.552H449.683V90.976H455.203V97.552H461.635V102.016H455.203ZM490.918 110.128C490.918 111.12 490.854 112.016 490.726 112.816H470.518C470.678 114.928 471.462 116.624 472.87 117.904C474.278 119.184 476.006 119.824 478.054 119.824C480.998 119.824 483.078 118.592 484.294 116.128H490.198C489.398 118.56 487.942 120.56 485.83 122.128C483.75 123.664 481.158 124.432 478.054 124.432C475.526 124.432 473.254 123.872 471.238 122.752C469.254 121.6 467.686 120 466.534 117.952C465.414 115.872 464.854 113.472 464.854 110.752C464.854 108.032 465.398 105.648 466.486 103.6C467.606 101.52 469.158 99.92 471.142 98.8C473.158 97.68 475.462 97.12 478.054 97.12C480.55 97.12 482.774 97.664 484.726 98.752C486.678 99.84 488.198 101.376 489.286 103.36C490.374 105.312 490.918 107.568 490.918 110.128ZM485.206 108.4C485.174 106.384 484.454 104.768 483.046 103.552C481.638 102.336 479.894 101.728 477.814 101.728C475.926 101.728 474.31 102.336 472.966 103.552C471.622 104.736 470.822 106.352 470.566 108.4H485.206ZM482.854 90.448L472.246 95.68V91.648L482.854 85.792V90.448ZM505.903 124.432C503.823 124.432 501.951 124.064 500.287 123.328C498.655 122.56 497.359 121.536 496.399 120.256C495.439 118.944 494.927 117.488 494.863 115.888H500.527C500.623 117.008 501.151 117.952 502.111 118.72C503.103 119.456 504.335 119.824 505.807 119.824C507.343 119.824 508.527 119.536 509.359 118.96C510.223 118.352 510.655 117.584 510.655 116.656C510.655 115.664 510.175 114.928 509.215 114.448C508.287 113.968 506.799 113.44 504.751 112.864C502.767 112.32 501.151 111.792 499.903 111.28C498.655 110.768 497.567 109.984 496.639 108.928C495.743 107.872 495.295 106.48 495.295 104.752C495.295 103.344 495.711 102.064 496.543 100.912C497.375 99.728 498.559 98.8 500.095 98.128C501.663 97.456 503.455 97.12 505.471 97.12C508.479 97.12 510.895 97.888 512.719 99.424C514.575 100.928 515.567 102.992 515.695 105.616H510.223C510.127 104.432 509.647 103.488 508.783 102.784C507.919 102.08 506.751 101.728 505.279 101.728C503.839 101.728 502.735 102 501.967 102.544C501.199 103.088 500.815 103.808 500.815 104.704C500.815 105.408 501.071 106 501.583 106.48C502.095 106.96 502.719 107.344 503.455 107.632C504.191 107.888 505.279 108.224 506.719 108.64C508.639 109.152 510.207 109.68 511.423 110.224C512.671 110.736 513.743 111.504 514.639 112.528C515.535 113.552 515.999 114.912 516.031 116.608C516.031 118.112 515.615 119.456 514.783 120.64C513.951 121.824 512.767 122.752 511.231 123.424C509.727 124.096 507.951 124.432 505.903 124.432ZM49.824 177.104L57.312 155.552H63.12L53.04 182H46.512L36.48 155.552H42.336L49.824 177.104ZM70.0403 152.048C69.0483 152.048 68.2163 151.712 67.5443 151.04C66.8723 150.368 66.5363 149.536 66.5363 148.544C66.5363 147.552 66.8723 146.72 67.5443 146.048C68.2163 145.376 69.0483 145.04 70.0403 145.04C71.0003 145.04 71.8163 145.376 72.4883 146.048C73.1603 146.72 73.4963 147.552 73.4963 148.544C73.4963 149.536 73.1603 150.368 72.4883 151.04C71.8163 151.712 71.0003 152.048 70.0403 152.048ZM72.7283 155.552V182H67.2563V155.552H72.7283ZM78.0885 168.656C78.0885 166 78.6325 163.648 79.7205 161.6C80.8405 159.552 82.3445 157.968 84.2325 156.848C86.1525 155.696 88.2805 155.12 90.6165 155.12C92.3445 155.12 94.0405 155.504 95.7045 156.272C97.4005 157.008 98.7445 158 99.7365 159.248V146.48H105.257V182H99.7365V178.016C98.8405 179.296 97.5925 180.352 95.9925 181.184C94.4245 182.016 92.6165 182.432 90.5685 182.432C88.2645 182.432 86.1525 181.856 84.2325 180.704C82.3445 179.52 80.8405 177.888 79.7205 175.808C78.6325 173.696 78.0885 171.312 78.0885 168.656ZM99.7365 168.752C99.7365 166.928 99.3525 165.344 98.5845 164C97.8485 162.656 96.8725 161.632 95.6565 160.928C94.4405 160.224 93.1285 159.872 91.7205 159.872C90.3125 159.872 89.0005 160.224 87.7845 160.928C86.5685 161.6 85.5765 162.608 84.8085 163.952C84.0725 165.264 83.7045 166.832 83.7045 168.656C83.7045 170.48 84.0725 172.08 84.8085 173.456C85.5765 174.832 86.5685 175.888 87.7845 176.624C89.0325 177.328 90.3445 177.68 91.7205 177.68C93.1285 177.68 94.4405 177.328 95.6565 176.624C96.8725 175.92 97.8485 174.896 98.5845 173.552C99.3525 172.176 99.7365 170.576 99.7365 168.752ZM136.684 168.128C136.684 169.12 136.62 170.016 136.492 170.816H116.284C116.444 172.928 117.228 174.624 118.636 175.904C120.044 177.184 121.772 177.824 123.82 177.824C126.764 177.824 128.844 176.592 130.06 174.128H135.964C135.164 176.56 133.708 178.56 131.596 180.128C129.516 181.664 126.924 182.432 123.82 182.432C121.292 182.432 119.02 181.872 117.004 180.752C115.02 179.6 113.452 178 112.3 175.952C111.18 173.872 110.62 171.472 110.62 168.752C110.62 166.032 111.164 163.648 112.252 161.6C113.372 159.52 114.924 157.92 116.908 156.8C118.924 155.68 121.228 155.12 123.82 155.12C126.316 155.12 128.54 155.664 130.492 156.752C132.444 157.84 133.964 159.376 135.052 161.36C136.14 163.312 136.684 165.568 136.684 168.128ZM130.972 166.4C130.94 164.384 130.22 162.768 128.812 161.552C127.404 160.336 125.66 159.728 123.58 159.728C121.692 159.728 120.076 160.336 118.732 161.552C117.388 162.736 116.588 164.352 116.332 166.4H130.972ZM128.62 148.448L118.012 153.68V149.648L128.62 143.792V148.448ZM153.541 182.432C151.045 182.432 148.789 181.872 146.773 180.752C144.757 179.6 143.173 178 142.021 175.952C140.869 173.872 140.293 171.472 140.293 168.752C140.293 166.064 140.885 163.68 142.069 161.6C143.253 159.52 144.869 157.92 146.917 156.8C148.965 155.68 151.253 155.12 153.781 155.12C156.309 155.12 158.597 155.68 160.645 156.8C162.693 157.92 164.309 159.52 165.493 161.6C166.677 163.68 167.269 166.064 167.269 168.752C167.269 171.44 166.661 173.824 165.445 175.904C164.229 177.984 162.565 179.6 160.453 180.752C158.373 181.872 156.069 182.432 153.541 182.432ZM153.541 177.68C154.949 177.68 156.261 177.344 157.477 176.672C158.725 176 159.733 174.992 160.501 173.648C161.269 172.304 161.653 170.672 161.653 168.752C161.653 166.832 161.285 165.216 160.549 163.904C159.813 162.56 158.837 161.552 157.621 160.88C156.405 160.208 155.093 159.872 153.685 159.872C152.277 159.872 150.965 160.208 149.749 160.88C148.565 161.552 147.621 162.56 146.917 163.904C146.213 165.216 145.861 166.832 145.861 168.752C145.861 171.6 146.581 173.808 148.021 175.376C149.493 176.912 151.333 177.68 153.541 177.68ZM209.387 168.128C209.387 169.12 209.323 170.016 209.195 170.816H188.987C189.147 172.928 189.931 174.624 191.339 175.904C192.747 177.184 194.475 177.824 196.523 177.824C199.467 177.824 201.547 176.592 202.763 174.128H208.667C207.867 176.56 206.411 178.56 204.299 180.128C202.219 181.664 199.627 182.432 196.523 182.432C193.995 182.432 191.723 181.872 189.707 180.752C187.723 179.6 186.155 178 185.003 175.952C183.883 173.872 183.323 171.472 183.323 168.752C183.323 166.032 183.867 163.648 184.955 161.6C186.075 159.52 187.627 157.92 189.611 156.8C191.627 155.68 193.931 155.12 196.523 155.12C199.019 155.12 201.243 155.664 203.195 156.752C205.147 157.84 206.667 159.376 207.755 161.36C208.843 163.312 209.387 165.568 209.387 168.128ZM203.675 166.4C203.643 164.384 202.923 162.768 201.515 161.552C200.107 160.336 198.363 159.728 196.283 159.728C194.395 159.728 192.779 160.336 191.435 161.552C190.091 162.736 189.291 164.352 189.035 166.4H203.675ZM228.116 155.12C230.196 155.12 232.052 155.552 233.684 156.416C235.348 157.28 236.644 158.56 237.572 160.256C238.5 161.952 238.964 164 238.964 166.4V182H233.54V167.216C233.54 164.848 232.948 163.04 231.764 161.792C230.58 160.512 228.964 159.872 226.916 159.872C224.868 159.872 223.236 160.512 222.02 161.792C220.836 163.04 220.244 164.848 220.244 167.216V182H214.772V155.552H220.244V158.576C221.14 157.488 222.276 156.64 223.652 156.032C225.06 155.424 226.548 155.12 228.116 155.12ZM282.365 155.552V182H276.893V178.88C276.029 179.968 274.893 180.832 273.485 181.472C272.109 182.08 270.637 182.384 269.069 182.384C266.989 182.384 265.117 181.952 263.453 181.088C261.821 180.224 260.525 178.944 259.565 177.248C258.637 175.552 258.173 173.504 258.173 171.104V155.552H263.597V170.288C263.597 172.656 264.189 174.48 265.373 175.76C266.557 177.008 268.173 177.632 270.221 177.632C272.269 177.632 273.885 177.008 275.069 175.76C276.285 174.48 276.893 172.656 276.893 170.288V155.552H282.365ZM302.928 155.12C305.008 155.12 306.864 155.552 308.496 156.416C310.16 157.28 311.456 158.56 312.384 160.256C313.312 161.952 313.776 164 313.776 166.4V182H308.352V167.216C308.352 164.848 307.76 163.04 306.576 161.792C305.392 160.512 303.776 159.872 301.728 159.872C299.68 159.872 298.048 160.512 296.832 161.792C295.648 163.04 295.056 164.848 295.056 167.216V182H289.584V155.552H295.056V158.576C295.952 157.488 297.088 156.64 298.464 156.032C299.872 155.424 301.36 155.12 302.928 155.12ZM331.401 168.752C331.401 166.032 331.945 163.648 333.033 161.6C334.153 159.52 335.689 157.92 337.641 156.8C339.593 155.68 341.833 155.12 344.361 155.12C347.561 155.12 350.201 155.888 352.281 157.424C354.393 158.928 355.817 161.088 356.553 163.904H350.649C350.169 162.592 349.401 161.568 348.345 160.832C347.289 160.096 345.961 159.728 344.361 159.728C342.121 159.728 340.329 160.528 338.985 162.128C337.673 163.696 337.017 165.904 337.017 168.752C337.017 171.6 337.673 173.824 338.985 175.424C340.329 177.024 342.121 177.824 344.361 177.824C347.529 177.824 349.625 176.432 350.649 173.648H356.553C355.785 176.336 354.345 178.48 352.233 180.08C350.121 181.648 347.497 182.432 344.361 182.432C341.833 182.432 339.593 181.872 337.641 180.752C335.689 179.6 334.153 178 333.033 175.952C331.945 173.872 331.401 171.472 331.401 168.752ZM367.478 146.48V182H362.006V146.48H367.478ZM377.447 152.048C376.455 152.048 375.623 151.712 374.951 151.04C374.279 150.368 373.943 149.536 373.943 148.544C373.943 147.552 374.279 146.72 374.951 146.048C375.623 145.376 376.455 145.04 377.447 145.04C378.407 145.04 379.223 145.376 379.895 146.048C380.567 146.72 380.903 147.552 380.903 148.544C380.903 149.536 380.567 150.368 379.895 151.04C379.223 151.712 378.407 152.048 377.447 152.048ZM380.135 155.552V182H374.663V155.552H380.135ZM385.495 168.752C385.495 166.032 386.039 163.648 387.127 161.6C388.247 159.52 389.783 157.92 391.735 156.8C393.687 155.68 395.927 155.12 398.455 155.12C401.655 155.12 404.295 155.888 406.375 157.424C408.487 158.928 409.911 161.088 410.647 163.904H404.743C404.263 162.592 403.495 161.568 402.439 160.832C401.383 160.096 400.055 159.728 398.455 159.728C396.215 159.728 394.423 160.528 393.079 162.128C391.767 163.696 391.111 165.904 391.111 168.752C391.111 171.6 391.767 173.824 393.079 175.424C394.423 177.024 396.215 177.824 398.455 177.824C401.623 177.824 403.719 176.432 404.743 173.648H410.647C409.879 176.336 408.439 178.48 406.327 180.08C404.215 181.648 401.591 182.432 398.455 182.432C395.927 182.432 393.687 181.872 391.735 180.752C389.783 179.6 388.247 178 387.127 175.952C386.039 173.872 385.495 171.472 385.495 168.752ZM418.308 182.336C417.316 182.336 416.484 182 415.812 181.328C415.14 180.656 414.804 179.824 414.804 178.832C414.804 177.84 415.14 177.008 415.812 176.336C416.484 175.664 417.316 175.328 418.308 175.328C419.268 175.328 420.084 175.664 420.756 176.336C421.428 177.008 421.764 177.84 421.764 178.832C421.764 179.824 421.428 180.656 420.756 181.328C420.084 182 419.268 182.336 418.308 182.336Z" fill="#6BC5D2"/>
<g filter="url(#filter0_f_48_477)">
<path d="M483.455 409C483.455 490.738 424.813 550 344.455 550C256.455 530.5 184.955 466 216.455 409C166.955 350 264.098 281 344.455 281C424.813 281 525.455 320.5 483.455 409Z" fill="#3496A4" fill-opacity="0.38"/>
</g>
<path d="M416.142 424.041C421.01 424.041 424.955 420.243 424.955 415.557C424.955 410.872 421.01 407.074 416.142 407.074C411.275 407.074 407.33 410.872 407.33 415.557C407.33 420.243 411.275 424.041 416.142 424.041Z" fill="#6BC5D2"/>
<path d="M377.171 368.049H390.096C391.467 371.254 394.6 373.328 398.321 373.328C403.217 373.328 407.134 369.557 407.134 364.844C407.134 360.131 403.217 356.361 398.321 356.361C394.6 356.361 391.467 358.623 390.096 361.639H377.171C376.191 360.32 374.429 359.377 372.47 359.377C369.337 359.377 366.791 361.828 366.791 364.844C366.791 366.73 367.77 368.238 369.141 369.369V378.23H350.341V369.369C351.712 368.426 352.691 366.73 352.691 364.844C352.691 361.828 350.145 359.377 347.011 359.377C343.878 359.377 341.332 361.828 341.332 364.844C341.332 366.73 342.311 368.238 343.682 369.369V378.23H324.882V369.369C326.253 368.426 327.232 366.73 327.232 364.844C327.232 362.959 326.253 361.451 324.882 360.32V352.402C328.211 351.082 330.365 348.066 330.365 344.484C330.365 339.77 326.448 336 321.553 336C316.657 336 312.74 339.77 312.74 344.484C312.74 348.066 315.09 351.082 318.223 352.402V360.32C316.852 361.262 315.873 362.959 315.873 364.844C315.873 366.73 316.852 368.238 318.223 369.369V378.23H307.06V388.033H298.639C297.66 386.713 295.898 385.771 293.939 385.771C291.981 385.771 290.414 386.713 289.239 388.033H270.635V398.213C267.501 399.344 265.151 402.549 265.151 406.131C265.151 410.844 269.068 414.615 273.964 414.615C278.86 414.615 282.776 410.844 282.776 406.131C282.776 402.549 280.426 399.533 277.293 398.213V394.443H289.631C290.61 395.762 292.373 396.705 294.331 396.705C296.289 396.705 297.856 395.762 299.031 394.443H307.648V412.541H299.031C298.052 411.221 296.289 410.279 294.331 410.279C291.198 410.279 288.652 412.73 288.652 415.746C288.652 418.762 291.198 421.213 294.331 421.213C296.289 421.213 297.856 420.271 299.031 418.951H307.452V437.049H298.835C297.856 435.73 296.094 434.787 294.135 434.787C292.177 434.787 290.61 435.73 289.435 437.049H281.993C280.622 433.844 277.489 431.771 273.768 431.771C268.872 431.771 264.955 435.541 264.955 440.254C264.955 444.967 268.872 448.738 273.768 448.738C277.489 448.738 280.622 446.475 281.993 443.459H289.435C290.414 444.779 292.177 445.721 294.135 445.721C296.094 445.721 297.66 444.779 298.835 443.459H307.256V452.885H318.419V461.746C318.223 461.934 318.027 462.123 317.636 462.311H302.36C300.989 459.107 297.856 457.033 294.135 457.033C289.239 457.033 285.322 460.803 285.322 465.516C285.322 470.23 289.239 474 294.135 474C297.856 474 300.989 471.738 302.36 468.721H316.657C317.636 470.418 319.398 471.738 321.748 471.738C324.882 471.738 327.428 469.287 327.428 466.27C327.428 464.385 326.448 462.877 325.078 461.746V452.885H343.878V461.746C342.507 462.689 341.528 464.385 341.528 466.27C341.528 469.287 344.074 471.738 347.207 471.738C350.341 471.738 352.887 469.287 352.887 466.27C352.887 464.385 351.907 462.877 350.537 461.746V452.885H369.337V461.746C367.966 462.689 366.987 464.385 366.987 466.27C366.987 469.287 369.533 471.738 372.666 471.738C375.8 471.738 378.346 469.287 378.346 466.27C378.346 464.385 377.366 462.877 375.996 461.746V452.885C381.283 452.697 385.396 448.549 385.396 443.459H393.817C394.209 444.025 394.6 444.402 395.188 444.779V457.598C391.858 458.918 389.704 461.934 389.704 465.516C389.704 470.23 393.621 474 398.517 474C403.413 474 407.33 470.23 407.33 465.516C407.33 461.934 404.98 458.918 401.846 457.598V444.779C403.217 443.836 404.196 442.139 404.196 440.254C404.196 437.238 401.65 434.787 398.517 434.787C396.559 434.787 394.992 435.73 393.817 437.049H385.396V418.951H393.817C394.796 420.271 396.559 421.213 398.517 421.213C401.65 421.213 404.196 418.762 404.196 415.746C404.196 412.73 401.65 410.279 398.517 410.279C396.559 410.279 394.992 411.221 393.817 412.541H385.2V394.443H393.621C394.6 395.762 396.363 396.705 398.321 396.705C401.455 396.705 404 394.254 404 391.238C404 388.221 401.455 385.771 398.321 385.771C396.363 385.771 394.796 386.713 393.621 388.033H385.2V378.23H375.8V369.369C376.387 368.992 376.779 368.426 377.171 368.049ZM358.174 404.246V426.869H334.674V404.246H358.174Z" fill="#6BC5D2"/>
<defs>
<filter id="filter0_f_48_477" x="82.9999" y="161" width="530.33" height="509" filterUnits="userSpaceOnUse" color-interpolation-filters="sRGB">
<feFlood flood-opacity="0" result="BackgroundImageFix"/>
<feBlend mode="normal" in="SourceGraphic" in2="BackgroundImageFix" result="shape"/>
<feGaussianBlur stdDeviation="60" result="effect1_foregroundBlur_48_477"/>
</filter>
</defs>
</svg>
